<?xml version="1.0" encoding="UTF-8"?>
<svg width="720pt" height="920pt" version="1.1" viewBox="0 0 580 680" xmlns="http://www.w3.org/2000/svg" xmlns:xlink="http://www.w3.org/1999/xlink">
<g>
  <path d="m321.97 113.26c0 8.2344-2.6406 15.852-7.082 22.105l-56.453-50.809c6.75-5.9453 15.574-9.582 25.25-9.582 21.113 0 38.285 17.176 38.285 38.285z" fill="#20a4b6"/>
  <path d="m354.82 160.09 17.906-24.922 31.551 22.68-17.906 24.918c-3.6406 5.0703-9.5508 8.0938-15.797 8.0938-4.0781-0.003906-7.9922-1.2695-11.32-3.6562-4.2148-3.0234-7-7.5156-7.8359-12.641-0.83594-5.1172 0.37109-10.254 3.4023-14.473z" fill="#20a4b6"/>
  <path d="m278.6 215.8c-0.09375 0.30078-0.17969 0.60547-0.25781 0.91016-0.60938 2.3789 0.82422 4.8047 3.1992 5.4102 0.37109 0.09375 0.74219 0.14062 1.1094 0.14062 1.9805 0 3.7852-1.332 4.3008-3.3398l0.13672-0.48047c0.80859-2.6211 2.5938-4.7656 5.0195-6.0469s5.207-1.5391 7.8281-0.72266c2.3359 0.71875 4.8359-0.58984 5.5625-2.9336 0.72266-2.3438-0.58594-4.832-2.9336-5.5625-4.8828-1.5117-10.07-1.0312-14.598 1.3555-4.5312 2.3867-7.8594 6.3906-9.3672 11.27z" fill="#20a4b6"/>
  <path d="m523.34 0h-346.67c-12.906 0-23.406 10.5-23.406 23.406v513.18c0 12.906 10.5 23.406 23.406 23.406h346.68c12.906 0 23.406-10.5 23.406-23.406l-0.003906-513.18c0.003906-12.906-10.496-23.406-23.406-23.406zm-175.74 154.91 20.496-28.52c0-0.007813 0.003906-0.007813 0.007812-0.011719 0.003907-0.003906 0.007813-0.007812 0.007813-0.007812l20.551-28.594c5.3086-7.3828 13.91-11.793 23.02-11.793 5.9492 0 11.664 1.8438 16.508 5.3242 12.68 9.1133 15.578 26.844 6.4688 39.523l-41.059 57.137c-5.3086 7.3828-13.914 11.793-23.02 11.793-5.9531-0.003906-11.664-1.8438-16.508-5.3242-6.1406-4.4141-10.195-10.961-11.418-18.426-1.2305-7.4609 0.53125-14.957 4.9453-21.102zm-99.168-72.875c0.078124-0.10156 0.10547-0.22656 0.19141-0.32031 0.09375-0.10547 0.21484-0.14453 0.31641-0.23828 8.6328-9.4297 20.992-15.379 34.754-15.379 26.012 0 47.172 21.164 47.172 47.172 0 11.984-4.5273 22.906-11.918 31.238-0.078124 0.10156-0.10156 0.22266-0.1875 0.31641-0.16797 0.1875-0.35937 0.33594-0.54687 0.48828-8.6211 9.2812-20.887 15.125-34.52 15.125-26.012 0-47.172-21.16-47.172-47.172-0.007812-11.98 4.5195-22.902 11.91-31.23zm81.277 139.45c0 18.094-14.719 32.812-32.812 32.812s-32.816-14.719-32.816-32.812 14.723-32.816 32.816-32.816c18.094 0.003907 32.812 14.723 32.812 32.816zm-90.031 91.109h220.65c2.457 0 4.4453 1.9883 4.4453 4.4453 0 2.457-1.9883 4.4453-4.4453 4.4453h-220.65c-2.4531 0-4.4453-1.9883-4.4453-4.4453 0-2.457 1.9922-4.4453 4.4453-4.4453zm0 89.098h220.65c2.457 0 4.4453 1.9883 4.4453 4.4453 0 2.457-1.9883 4.4453-4.4453 4.4453l-220.65-0.003906c-2.4531 0-4.4453-1.9883-4.4453-4.4453 0-2.4531 1.9922-4.4414 4.4453-4.4414zm110.32 97.988h-110.32c-2.4531 0-4.4453-1.9883-4.4453-4.4453s1.9922-4.4453 4.4453-4.4453h110.32c2.457 0 4.4453 1.9883 4.4453 4.4453-0.003906 2.457-1.9922 4.4453-4.4453 4.4453zm163.03 0.71484-48.758 2.293c-1.2461 0.039062-2.4414-0.40625-3.3242-1.2734-0.88281-0.86328-1.3633-2.0586-1.3281-3.2969l0.34375-11.633-20.684 11.625c-1.5312 0.85938-3.4258 0.73828-4.8359-0.3125-1.4062-1.0508-2.0664-2.832-1.6758-4.5469l6.0117-26.496-44.855 49.387c-0.87891 0.96484-2.0781 1.4531-3.2891 1.4531-1.0664 0-2.1406-0.37891-2.9883-1.1562-1.8164-1.6484-1.9531-4.4609-0.30469-6.2773l56.219-61.898c1.3555-1.4922 3.5547-1.8867 5.3438-0.95312 1.7891 0.92969 2.7305 2.957 2.2812 4.9258l-7.5391 33.223 18.812-10.57c1.3984-0.78516 3.1094-0.75781 4.4766 0.070313 1.3711 0.82812 2.1914 2.332 2.1445 3.9336l-0.43359 14.691 43.969-2.0664c2.5-0.10547 4.5352 1.7852 4.6445 4.2305 0.11328 2.4531-1.7773 4.5352-4.2305 4.6484z" fill="#20a4b6"/>
 </g>
</svg>
