<?xml version="1.0" encoding="UTF-8"?>
<svg width="800pt" height="800pt" version="1.1" viewBox="0 0 550 550" xmlns="http://www.w3.org/2000/svg" xmlns:xlink="http://www.w3.org/1999/xlink">

 <g>
  <path d="m516.3 114.66c0 22.344-18.117 40.461-40.461 40.461-22.348 0-40.461-18.117-40.461-40.461s18.113-40.461 40.461-40.461c22.344 0 40.461 18.117 40.461 40.461" fill="#20a4b6"/>
  <path d="m493.33 219.92c0 3.7734 3.0586 6.8359 6.8203 6.8359 3.7812 0 6.8438-3.0625 6.8438-6.8359 0-3.7695-3.0625-6.8281-6.8438-6.8281-3.7617 0-6.8203 3.0586-6.8203 6.8281zm6.9219-4.9805c2.8008 0 5.0664 2.2734 5.0664 5.0742s-2.2695 5.0781-5.0664 5.0781c-2.793 0-5.0742-2.2773-5.0742-5.0781s2.2812-5.0742 5.0742-5.0742z" fill="#20a4b6"/>
  <path d="m466.05 221c0 1.7305-2.5977 1.7305-2.5977 0 0-1.7344 2.5977-1.7344 2.5977 0" fill="#20a4b6"/>
  <path d="m429.68 224.58c0-5.5391 1.7148-10.137 4.2773-13.996v98.891c0 0.0625-0.011719 0.11719-0.011719 0.17969v196.11c0 9.4648 7.668 17.141 17.137 17.141s17.129-7.6719 17.129-17.141l0.003907-149.58c2.4805 0.45312 5.0391 0.72266 7.6367 0.72266 2.5586 0 5.0508-0.26172 7.5-0.70703v148.44c0 9.457 7.668 17.137 17.129 17.137 9.4648 0 17.141-7.6719 17.141-17.137l0.003906-187.12c0.042968-0.83594 0.125-1.6562 0.125-2.5039l-0.003906-104.36c2.5469 3.8516 4.2383 8.4102 4.2383 13.922v82.828c0 7.3594 5.9648 13.324 13.328 13.324 7.3516 0 13.332-5.957 13.332-13.324l0.003906-82.828c0-33.371-28.996-50.293-48.883-56.141 2.8398 6.3672 7.3789 20.324 4.6992 40.141 4.5977 1.7461 7.8789 6.1484 7.8789 11.344 0 6.707-5.4648 12.168-12.18 12.168-6.6992 0-12.152-5.4609-12.152-12.168 0-6.3633 4.9375-11.547 11.172-12.059 3.3984-25.277-5.8281-40.309-5.9375-40.465-0.17969-0.29688-0.29297-0.60938-0.35156-0.93359-5.2148-2.3359-10.949-3.7188-17.047-3.7188-6.5469 0-12.73 1.5469-18.25 4.2266h-0.011719v33.996c3.2148 0.47656 5.8125 1.8086 7.7109 4.0664 3.5 4.168 3.3867 10.023 3.1602 12.48 0.85156 0.91406 1.4062 2.1289 1.4062 3.4766 0 2.8242-2.2891 5.1133-5.1055 5.1133-2.8125 0-5.1016-2.2891-5.1016-5.1133 0-2.2617 1.5117-4.1211 3.543-4.793 0.10156-2.0039-0.054687-5.4648-1.9922-7.75-1.3477-1.6016-3.4062-2.375-6.2891-2.375-2.9023 0-4.9961 0.79688-6.4062 2.4258-1.9609 2.2773-2.2227 5.707-2.1914 7.7188 2.0234 0.68359 3.5 2.5352 3.5 4.7812 0 2.8242-2.2891 5.1133-5.1172 5.1133-2.8008 0-5.0977-2.2891-5.0977-5.1133 0-1.3672 0.55859-2.5938 1.4297-3.5117-0.16406-2.4453-0.14062-8.3008 3.4336-12.465 1.9375-2.2383 4.5703-3.5781 7.7852-4.0469v-32.641c-19.898 5.75-49.23 22.676-49.23 56.246h26.656z" fill="#20a4b6"/>
  <path d="m446 220.99c0 1.7344-2.5977 1.7344-2.5977 0 0-1.7305 2.5977-1.7305 2.5977 0" fill="#20a4b6"/>
  <path d="m502.79 220.01c0 3.3828-5.0703 3.3828-5.0703 0 0-3.3828 5.0703-3.3828 5.0703 0" fill="#20a4b6"/>
  <path d="m267 113.57c0 22.402-18.164 40.566-40.566 40.566-22.406 0-40.566-18.164-40.566-40.566 0-22.406 18.16-40.566 40.566-40.566 22.402 0 40.566 18.16 40.566 40.566" fill="#20a4b6"/>
  <path d="m243.97 219.11c0 3.7812 3.0703 6.8555 6.8438 6.8555 3.793 0 6.8555-3.0742 6.8555-6.8555s-3.0625-6.8477-6.8555-6.8477c-3.7734 0.007812-6.8438 3.0742-6.8438 6.8477zm6.9453-4.9922c2.8047 0 5.0898 2.2852 5.0898 5.0898 0 2.8047-2.2852 5.0898-5.0898 5.0898-2.8008 0-5.0859-2.2852-5.0859-5.0898 0-2.8047 2.2852-5.0898 5.0859-5.0898z" fill="#20a4b6"/>
  <path d="m216.61 220.2c0 1.7305-2.5977 1.7305-2.5977 0 0-1.7344 2.5977-1.7344 2.5977 0" fill="#20a4b6"/>
  <path d="m299.42 223.78c0-33.465-29.074-50.43-49.012-56.293 2.8516 6.3789 7.3984 20.379 4.7109 40.246 4.6094 1.7539 7.9023 6.1641 7.9023 11.375 0 6.7266-5.4727 12.195-12.207 12.195-6.7188 0-12.191-5.4727-12.191-12.195 0-6.3789 4.957-11.582 11.207-12.09 3.4102-25.344-5.8477-40.414-5.9453-40.57-0.19141-0.29688-0.29688-0.61719-0.35156-0.94141-5.2266-2.3477-10.977-3.7305-17.09-3.7305-6.5625 0-12.762 1.5469-18.301 4.2383h-0.011719v34.086c3.2188 0.47656 5.8242 1.8125 7.7266 4.0781 3.5117 4.1758 3.4062 10.039 3.1641 12.516 0.86328 0.91406 1.418 2.1328 1.418 3.4883 0 2.8281-2.2969 5.125-5.125 5.125-2.8125 0-5.1133-2.2969-5.1133-5.125 0-2.2734 1.5195-4.1367 3.5508-4.8047 0.10547-2.0117-0.050781-5.4805-1.9922-7.7734-1.3555-1.6016-3.4141-2.3789-6.3047-2.3789-2.9102 0-5.0078 0.79688-6.418 2.4297-1.9727 2.2852-2.2344 5.7188-2.207 7.7344 2.0312 0.68359 3.5117 2.543 3.5117 4.793 0 2.8281-2.2969 5.125-5.125 5.125-2.8125 0-5.1172-2.2969-5.1172-5.125 0-1.3711 0.55859-2.6055 1.4336-3.5234-0.15625-2.4531-0.13281-8.3203 3.4453-12.492 1.9492-2.2461 4.582-3.5898 7.8047-4.0586l-0.007812-32.727c-19.945 5.7617-49.359 22.734-49.359 56.398v83.047c0 7.3789 5.9883 13.363 13.367 13.363 7.3711 0 13.367-5.9805 13.367-13.363v-83.047c0-5.5547 1.7148-10.16 4.2969-14.027v99.148c0 0.0625-0.011719 0.125-0.011719 0.18359v196.63c0 9.4922 7.6758 17.18 17.176 17.18 9.4883 0 17.168-7.6953 17.168-17.18v-149.98c2.4883 0.46094 5.0469 0.72656 7.6602 0.72656 2.5664 0 5.0625-0.26172 7.5156-0.70703v148.83c0 9.4883 7.6875 17.18 17.168 17.18 9.4961 0 17.188-7.6953 17.188-17.18v-187.61c0.050781-0.83984 0.11719-1.6641 0.11719-2.5078v-104.65c2.5664 3.8594 4.2617 8.4375 4.2617 13.961z" fill="#20a4b6"/>
  <path d="m196.51 220.19c0 1.7344-2.5977 1.7344-2.5977 0 0-1.7305 2.5977-1.7305 2.5977 0" fill="#20a4b6"/>
  <path d="m253.46 219.21c0 3.3984-5.0938 3.3984-5.0938 0 0-3.3984 5.0938-3.3984 5.0938 0" fill="#20a4b6"/>
  <path d="m395.67 75.926c0 24.727-20.043 44.77-44.77 44.77-24.727 0-44.773-20.043-44.773-44.77 0-24.727 20.047-44.773 44.773-44.773 24.727 0 44.77 20.047 44.77 44.773" fill="#20a4b6"/>
  <path d="m370.25 192.39c0 4.1719 3.3867 7.5664 7.5547 7.5664 4.1719 0 7.5703-3.3945 7.5703-7.5664s-3.3945-7.5586-7.5703-7.5586c-4.1602-0.003907-7.5547 3.3867-7.5547 7.5586zm7.6602-5.5117c3.0898 0 5.6094 2.5195 5.6094 5.6094 0 3.0977-2.5195 5.6172-5.6094 5.6172-3.0977 0-5.6172-2.5195-5.6172-5.6172 0.003906-3.0938 2.5273-5.6094 5.6172-5.6094z" fill="#20a4b6"/>
  <path d="m340.08 193.58c0 1.918-2.8789 1.918-2.8789 0 0-1.9219 2.8789-1.9219 2.8789 0"  fill="#20a4b6"/>
  <path d="m377.36 135.43c3.1406 7.043 8.1641 22.484 5.2031 44.418 5.0781 1.9336 8.7148 6.8047 8.7148 12.555 0 7.4219-6.0312 13.461-13.461 13.461-7.4141 0-13.453-6.043-13.453-13.461 0-7.0391 5.4648-12.777 12.363-13.344 3.7617-27.973-6.4531-44.598-6.5703-44.773-0.20312-0.33203-0.32422-0.68359-0.38672-1.043-5.7695-2.5938-12.117-4.1211-18.855-4.1211-7.2461 0-14.09 1.7148-20.199 4.6797h-0.011719v37.621c3.5664 0.52734 6.4414 2.0039 8.5352 4.5039 3.8711 4.6094 3.7539 11.082 3.4961 13.809 0.95312 1.0117 1.5586 2.3594 1.5586 3.8516 0 3.1211-2.5312 5.6523-5.6523 5.6523-3.1211 0-5.6523-2.5352-5.6523-5.6523 0-2.5078 1.668-4.5625 3.9258-5.3047 0.10156-2.2227-0.074219-6.0547-2.2109-8.5781-1.5-1.7695-3.7812-2.625-6.957-2.625-3.2148 0-5.5273 0.87891-7.0938 2.6875-2.168 2.5195-2.4648 6.3008-2.4297 8.5273 2.2383 0.75781 3.875 2.8125 3.875 5.293 0 3.1211-2.5352 5.6523-5.6602 5.6523-3.1094 0-5.6445-2.5352-5.6445-5.6523 0-1.5117 0.61719-2.8711 1.5781-3.8867-0.17969-2.7031-0.15625-9.1914 3.8086-13.789 2.1406-2.4805 5.0469-3.9648 8.6133-4.4844v-36.113c-22.02 6.3633-54.48 25.09-54.48 62.242v91.645c0 8.1484 6.6133 14.746 14.75 14.746 8.1367 0 14.75-6.5977 14.75-14.746l-0.003906-91.648c0-6.1328 1.8945-11.219 4.7383-15.488v109.42c0 0.066406-0.015625 0.13281-0.015625 0.20312v217c0 10.473 8.4844 18.961 18.961 18.961 10.473 0 18.957-8.4883 18.957-18.961v-165.52c2.7422 0.50781 5.5664 0.80469 8.457 0.80469 2.832 0 5.5898-0.29297 8.2812-0.78516v164.25c0 10.473 8.5 18.961 18.961 18.961 10.477 0 18.969-8.4883 18.969-18.961l-0.003906-207.04c0.054687-0.92578 0.12891-1.8359 0.12891-2.7734v-115.48c2.8281 4.2617 4.6992 9.3125 4.6992 15.406v91.645c0 8.1484 6.6016 14.746 14.75 14.746 8.1367 0 14.746-6.5977 14.746-14.746v-91.645c0-36.926-32.09-55.652-54.078-62.121z" fill="#20a4b6" />
  <path d="m317.88 193.58c0 1.9102-2.8672 1.9102-2.8672 0 0-1.9141 2.8672-1.9141 2.8672 0" fill="#20a4b6"/>
  <path d="m380.73 192.5c0 3.7461-5.6211 3.7461-5.6211 0 0-3.75 5.6211-3.75 5.6211 0" fill="#20a4b6"/>
 </g>
</svg>
