<svg width="32" height="34" viewBox="0 0 32 34" fill="none" xmlns="http://www.w3.org/2000/svg">
<path d="M21.897 2.1649C20.8961 1.30939 20.2007 1.51071 19.1979 3.37545C18.5355 4.60848 17.4811 4.75723 16.8351 4.71955L16.8396 4.47294C17.5885 4.08452 18.1165 3.29678 18.1165 2.3682C18.1167 2.05724 18.0581 1.74929 17.9441 1.46196C17.8301 1.17462 17.663 0.913524 17.4522 0.693594C17.2414 0.473664 16.9912 0.29921 16.7157 0.1802C16.4403 0.0611895 16.1451 -4.34559e-05 15.8469 2.31383e-08C14.5944 2.31383e-08 13.5732 1.05782 13.5732 2.36853C13.5732 3.29711 14.1016 4.08485 14.8524 4.47129L14.8546 4.71988C14.2109 4.75756 13.1542 4.60914 12.4918 3.37578C11.4931 1.51104 10.7956 1.30972 9.79721 2.16523C8.7922 3.02174 4.83046 7.9598 0 7.50658C0 7.50658 0.957472 9.77396 3.56746 9.2715C3.56746 9.2715 4.96231 10.7812 7.22588 9.72438C7.22588 9.72438 8.40204 10.8308 10.2736 9.82454C10.2736 9.82454 11.6643 10.9329 13.1479 9.97528C13.1479 9.97528 13.9856 10.608 14.9164 10.4444L14.976 16.1454C14.8708 16.1239 14.7861 16.0981 14.6749 16.0776C14.6708 16.0756 13.0531 15.714 11.3423 15.2135C9.69579 14.7636 7.88829 14.034 7.62206 13.6542C7.64488 13.6304 7.68196 13.6122 7.7295 13.5884C7.87593 13.5078 8.12567 13.4248 8.42296 13.3613C9.02736 13.233 9.84665 13.1676 10.6701 13.1332C12.3064 13.0717 12.6015 13.1461 12.6303 13.1517C12.6325 13.0978 13.5773 13.2681 13.8375 12.2638C13.8274 12.2552 13.8562 12.2142 13.8398 12.1904C13.7862 11.4995 13.2766 11.4652 12.8595 11.3845C12.1828 11.2919 12.5356 11.3286 11.6237 11.3405C10.1256 11.4569 5.50966 11.0672 4.92808 13.6013C4.92808 13.6724 4.92396 13.7177 4.91572 13.7801C5.10969 15.987 9.49041 16.9447 12.6639 17.6045C11.587 18.3737 11.0111 19.3744 10.7819 20.6682C10.6726 22.0477 11.7229 23.3607 14.1618 24.8281C12.3086 26.197 11.0913 27.4816 11.1905 29.0336C11.3638 30.2991 12.4348 31.9906 14.5392 33.056C14.5456 33.0583 14.5475 33.0537 14.5516 33.056H14.5579C14.5579 33.056 13.0848 30.7123 12.9856 29.4297C12.8886 28.6806 13.2972 27.5745 15.0882 26.242L15.1398 30.9295H15.1481C15.1604 31.3278 15.4555 31.6461 15.827 31.6461C16.1981 31.6461 16.4935 31.3278 16.5058 30.9295H16.5122L16.5718 26.3646C18.2224 27.6409 18.5961 28.7017 18.501 29.4293C18.4021 30.7119 16.9309 33.0557 16.9309 33.0557H16.935C16.935 33.0557 16.9394 33.058 16.9496 33.0557C19.0521 31.9903 20.1253 30.2987 20.2964 29.0333C20.3953 27.4816 19.1783 26.1967 17.3274 24.8278C19.764 23.3604 20.8165 22.0474 20.7072 20.6679C20.478 19.3744 19.9025 18.3737 18.8233 17.6042C21.999 16.9444 26.3775 15.9867 26.5715 13.7798C26.563 13.7206 26.5589 13.6608 26.5591 13.601C25.9791 11.0668 21.3613 11.4566 19.8632 11.3402C18.9513 11.3283 19.3041 11.2919 18.6274 11.3842C18.2107 11.4648 17.701 11.4992 17.6471 12.1901C17.6307 12.2139 17.6617 12.2546 17.6516 12.2635C17.9115 13.2674 18.8566 13.0972 18.8588 13.1514C18.8854 13.1458 19.1808 13.0717 20.8191 13.1329C21.6403 13.1673 22.4595 13.233 23.0639 13.361C23.3631 13.4244 23.6088 13.5071 23.7574 13.5881C23.8049 13.6119 23.8439 13.6301 23.8671 13.6539C23.6008 14.0337 21.7933 14.7633 20.1468 15.2132C18.4341 15.7136 16.8165 16.075 16.8123 16.0773C16.7711 16.0859 16.7382 16.0945 16.697 16.1021L16.7673 10.443C17.7039 10.6143 18.5479 9.97495 18.5479 9.97495C20.0274 10.9326 21.4222 9.82421 21.4222 9.82421C23.2934 10.8305 24.4677 9.72405 24.4677 9.72405C26.7312 10.7809 28.1261 9.27117 28.1261 9.27117C30.7345 9.77396 31.6939 7.50658 31.6939 7.50658C26.8615 7.9598 22.8998 3.02174 21.897 2.1649ZM13.7133 22.3832C13.1089 21.9915 12.8262 21.4623 12.8817 21.1049C12.9146 20.6077 12.7495 19.422 15.0048 18.5589L15.0565 23.2678C14.6213 22.9816 14.1713 22.6867 13.7133 22.3832ZM18.6037 21.1049C18.6594 21.4623 18.3764 21.9918 17.772 22.3832C17.3758 22.648 16.9879 22.8996 16.6082 23.1492L16.6662 18.6319C18.7232 19.4907 18.5707 20.6229 18.6037 21.1049Z" fill="url(#paint0_linear_2269_2500)"/>
<defs>
<linearGradient id="paint0_linear_2269_2500" x1="-430.997" y1="-130.982" x2="2916.88" y2="1292.52" gradientUnits="userSpaceOnUse">
<stop stop-color="#08C7D6"/>
<stop offset="0.00702708" stop-color="#0AC4D3"/>
<stop offset="0.0166287" stop-color="#0CC1D0"/>
<stop offset="0.0280137" stop-color="#0FBCCC"/>
<stop offset="0.137456" stop-color="#21A2B4"/>
<stop offset="0.151875" stop-color="#2F8DA0"/>
<stop offset="0.218037" stop-color="#032156"/>
<stop offset="0.25" stop-color="#49677C"/>
<stop offset="0.416667" stop-color="#033062"/>
<stop offset="0.505208" stop-color="#02023E"/>
<stop offset="0.594959" stop-color="#02023E"/>
</linearGradient>
</defs>
</svg>
