<svg width="716" height="547" viewBox="0 0 716 547" fill="none" xmlns="http://www.w3.org/2000/svg">
<g clip-path="url(#clip0_2241_3370)">
<path opacity="0.1" d="M238.04 546.692C272.909 546.692 301.176 541.796 301.176 535.756C301.176 529.716 272.909 524.819 238.04 524.819C203.172 524.819 174.905 529.716 174.905 535.756C174.905 541.796 203.172 546.692 238.04 546.692Z" fill="#6C63FF"/>
<path opacity="0.1" d="M581.235 547C624.746 547 660.018 542.104 660.018 536.063C660.018 530.023 624.746 525.127 581.235 525.127C537.724 525.127 502.452 530.023 502.452 536.063C502.452 542.104 537.724 547 581.235 547Z" fill="#6C63FF"/>
<path opacity="0.1" d="M8.96747 236.343H74.7269V333.012H13.7817C13.6197 334.004 13.4642 335.004 13.2957 336.003H74.7269V413.964C74.6168 413.929 74.5196 413.887 74.4159 413.846C72.6794 413.105 70.9559 412.322 69.2324 411.483L68.1309 410.945C66.4031 410.065 64.6752 409.133 62.9474 408.15C62.3448 407.808 61.7422 407.451 61.1461 407.088C51.5539 401.293 42.8399 393.949 35.3062 385.312C35.0859 385.082 34.8786 384.837 34.6583 384.614C33.6086 383.384 32.5784 382.14 31.5806 380.868L30.4791 379.47C29.2998 377.912 28.1595 376.311 27.0515 374.69C26.8895 374.453 26.734 374.215 26.5655 373.991C22.0594 367.253 18.3179 359.956 15.421 352.258C15.3302 352.027 15.2525 351.776 15.1683 351.559C14.2784 349.09 13.4901 346.597 12.8033 344.082C12.5052 343.026 12.2201 341.985 11.9739 340.888C11.8832 340.566 11.8054 340.252 11.7342 339.938C8.05387 324.445 7.61975 308.351 7.61975 292.368C7.61975 290.503 7.61975 288.63 7.61975 286.778C7.61975 280.314 7.69102 273.808 7.7947 267.308C7.7947 265.624 7.85949 263.947 7.89188 262.256C7.9826 257.965 8.11219 253.674 8.28065 249.384C8.31953 248.189 8.37136 247.001 8.42968 245.813C8.42968 245.128 8.46207 244.443 8.52687 243.758C8.68237 241.27 8.81196 238.803 8.96747 236.343Z" fill="#6C63FF"/>
<path opacity="0.1" d="M74.727 128.71H38.6561C44.5196 118.812 50.9262 109.3 57.8416 100.226C63.2001 93.1257 68.8566 86.2073 74.727 79.5405V128.71Z" fill="#6C63FF"/>
<path opacity="0.1" d="M74.727 131.701V233.352H9.17487C9.17487 233.059 9.22022 232.758 9.23966 232.465C9.29797 231.661 9.35629 230.858 9.42108 230.061C9.49235 229.124 9.57011 228.181 9.65434 227.266C9.73857 226.35 9.82929 225.232 9.92648 224.219C10.0237 223.205 10.1144 222.178 10.2245 221.165C10.3347 220.151 10.4319 219.138 10.5485 218.132C10.6651 217.126 10.7688 216.105 10.8919 215.099C10.9891 214.26 11.0928 213.429 11.1964 212.59C11.3455 211.409 11.501 210.221 11.6694 209.047C11.6694 208.872 11.7148 208.691 11.7407 208.523C12.9233 199.929 14.5347 191.409 16.5679 183.002C18.6961 174.183 21.4137 165.541 24.6995 157.145C28.1917 148.362 32.2805 139.869 36.9326 131.736L74.727 131.701Z" fill="#6C63FF"/>
<path opacity="0.1" d="M90.4266 236.336V333.012H230.881V236.336H90.4266ZM90.4266 335.996V419.017C91.23 419.198 92.027 419.373 92.8175 419.52C93.8931 419.743 94.9622 419.946 96.0572 420.121C96.2645 420.156 96.4783 420.191 96.7051 420.212C97.1328 420.289 97.5734 420.351 98.001 420.414C99.0831 420.575 100.159 420.708 101.241 420.813C101.753 420.869 102.271 420.918 102.789 420.959L104.04 421.064C104.72 421.12 105.394 421.162 106.061 421.183C106.476 421.183 106.891 421.225 107.318 421.239C107.642 421.239 107.966 421.239 108.303 421.239C108.64 421.239 109.12 421.239 109.528 421.239C110.085 421.239 110.642 421.239 111.193 421.239H111.938C112.495 421.239 113.053 421.239 113.603 421.183H113.642C114.025 421.183 114.413 421.183 114.802 421.127C114.91 421.134 115.018 421.134 115.126 421.127C115.45 421.127 115.774 421.127 116.085 421.078H116.312L118.482 420.897C119.195 420.827 119.914 420.736 120.64 420.652L122.117 420.463C128.127 419.555 134.071 418.191 139.903 416.382C153.005 412.441 165.821 406.927 178.916 402.888C195.846 397.682 214.552 395.124 230.913 401.49V335.996H90.4266ZM230.881 128.71V0.00691191C215.503 -0.172773 200.168 1.76703 185.246 5.77923C149.681 15.4161 117.77 36.318 90.4266 63.0132V128.703H97.4762V131.687H90.4266V233.352H230.881V131.694H126.42V128.71H230.881ZM411.287 85.2359C402.488 84.9005 393.74 81.8955 385.829 77.2553C370.7 68.3802 358.616 54.6762 345.112 43.1106C317.057 19.022 282.262 4.48639 246.567 0.880446V128.71H447.072L447.571 128.144L411.287 85.2359ZM429.552 81.7418L448.919 104.663V75.7318C442.433 76.5984 436.751 78.6599 429.578 81.7138L429.552 81.7418ZM448.919 439.632V335.996H407.652C407.542 335.556 407.431 335.109 407.302 334.661C407.425 335.109 407.529 335.556 407.645 335.996H246.593V410.945C248.122 412.168 249.632 413.454 251.129 414.761C252.742 416.159 254.336 417.633 255.936 419.08L257.55 420.519C258.321 421.218 259.098 421.917 259.882 422.574C261.437 423.934 263.008 425.276 264.593 426.599C265.377 427.298 266.18 427.927 266.977 428.584C279.63 439.017 292.977 448.432 306.91 456.753C310.033 458.617 313.184 460.436 316.363 462.211C318.482 463.378 320.614 464.538 322.752 465.663C325.966 467.355 329.206 468.985 332.471 470.555C362.579 485.132 394.415 495.134 427.07 500.276C434.323 501.432 441.604 502.34 448.913 503.002V439.625H449.56L448.919 439.632ZM246.593 131.694V233.352H448.945V131.694H246.593ZM246.593 236.336V333.012H448.945V236.336H246.593ZM464.651 75.606V107.878L489.37 78.625C481.18 77.1994 472.94 76.1814 464.651 75.5711V75.606ZM464.651 236.371V333.012H661.463V236.336L464.651 236.371ZM660.744 447.305L661.437 335.996H464.651V504.113C477.328 504.687 490.024 504.524 502.685 503.624H502.905C508.953 503.214 514.972 502.617 520.964 501.835H521.1C553.063 497.823 584.317 488.828 613.885 475.133M699.413 252.256C698.674 250.376 697.903 248.51 697.119 246.665C695.655 243.171 694.106 239.775 692.512 236.378H677.156V333.012H715.981C715.961 305.646 709.54 277.693 699.432 252.221L699.413 252.256ZM677.156 336.031V431.77C688.093 420.463 697.333 407.528 703.987 392.741C711.989 374.935 715.65 355.654 715.948 336.017L677.156 336.031ZM677.156 208.202V233.359H691.074C686.863 224.699 682.224 216.289 677.175 208.167L677.156 208.202ZM543.68 94.5722C542.657 94.1529 541.633 93.7266 540.603 93.3143C529.737 88.9867 518.634 85.3878 507.357 82.5384L469.53 127.312L468.804 128.144L469.29 128.717H603.919C585.169 114.797 564.955 103.323 543.7 94.5373L543.68 94.5722ZM607.865 131.729H467.411L464.651 134.454V233.352H488.845H488.884H661.489V185.448C645.875 165.081 627.853 147.009 607.885 131.694L607.865 131.729Z" fill="#6C63FF"/>
<path opacity="0.1" d="M74.727 182.974V233.352H9.17487C9.17487 233.059 9.22022 232.758 9.23966 232.465C9.29797 231.661 9.35629 230.858 9.42108 230.061C9.49235 229.124 9.57011 228.181 9.65434 227.266C9.73857 226.35 9.82929 225.232 9.92648 224.219C10.0237 223.205 10.1144 222.178 10.2245 221.165C10.3347 220.151 10.4319 219.138 10.5485 218.132C10.6651 217.126 10.7688 216.105 10.8919 215.099C10.9891 214.26 11.0928 213.429 11.1964 212.59C11.3455 211.409 11.501 210.221 11.6694 209.047C11.6694 208.872 11.7148 208.691 11.7407 208.523C12.9233 199.929 14.5347 191.409 16.5679 183.002L74.727 182.974Z" fill="#6C63FF"/>
<path opacity="0.1" d="M8.96747 236.343H74.7269V333.012H13.7817C13.6197 334.004 13.4642 335.004 13.2957 336.003H74.7269V413.964C74.6168 413.929 74.5196 413.887 74.4159 413.846C72.6794 413.105 70.9559 412.322 69.2324 411.483L68.1309 410.945C66.4031 410.065 64.6752 409.133 62.9474 408.15C62.3448 407.808 61.7422 407.451 61.1461 407.088C51.5539 401.293 42.8399 393.949 35.3062 385.312C35.0859 385.082 34.8786 384.837 34.6583 384.614C33.6086 383.384 32.5784 382.14 31.5806 380.868L30.4791 379.47C29.2998 377.912 28.1595 376.311 27.0515 374.69C26.8895 374.453 26.734 374.215 26.5655 373.991C22.0594 367.253 18.3179 359.956 15.421 352.258C15.3302 352.027 15.2525 351.776 15.1683 351.559C14.2784 349.09 13.4901 346.597 12.8033 344.082C12.5052 343.026 12.2201 341.985 11.9739 340.888C11.8832 340.566 11.8054 340.252 11.7342 339.938C8.05387 324.445 7.61975 308.351 7.61975 292.368C7.61975 290.503 7.61975 288.63 7.61975 286.778C7.61975 280.314 7.69102 273.808 7.7947 267.308C7.7947 265.624 7.85949 263.947 7.89188 262.256C7.9826 257.965 8.11219 253.674 8.28065 249.384C8.31953 248.189 8.37136 247.001 8.42968 245.813C8.42968 245.128 8.46207 244.443 8.52687 243.758C8.68237 241.27 8.81196 238.803 8.96747 236.343Z" fill="#6C63FF"/>
<path opacity="0.1" d="M139.871 146.251V233.352H90.4266V146.251H97.4762V116.76H126.413V146.251H139.871Z" fill="#6C63FF"/>
<path opacity="0.1" d="M139.871 236.336H90.433V333.005H139.871V236.336Z" fill="#6C63FF"/>
<path opacity="0.1" d="M90.4266 336.003H139.871V416.368C134.038 418.176 128.095 419.537 122.085 420.442L120.608 420.638C119.882 420.729 119.163 420.806 118.45 420.883C117.737 420.96 116.999 421.015 116.279 421.064H116.053C115.742 421.064 115.405 421.106 115.1 421.113H114.77C114.381 421.113 113.992 421.155 113.603 421.169C113.053 421.204 112.502 421.211 111.938 421.218C111.698 421.218 111.472 421.218 111.232 421.218C110.675 421.218 110.124 421.218 109.567 421.218H108.342C108.012 421.218 107.694 421.218 107.351 421.218L106.1 421.169C105.452 421.169 104.753 421.092 104.079 421.043L102.835 420.946L101.286 420.792C100.198 420.687 99.1155 420.554 98.0463 420.394L96.7505 420.198L96.1025 420.1C95.0205 419.918 93.9514 419.723 92.8628 419.499C92.0659 419.352 91.2754 419.171 90.4719 418.996L90.4266 336.003Z" fill="#6C63FF"/>
<path opacity="0.1" d="M448.945 135.964H408.177V233.345H448.945V135.964Z" fill="#6C63FF"/>
<path opacity="0.1" d="M448.951 236.336V333.012H246.593V291.313H354.378V315.912H408.177V236.336H448.951Z" fill="#6C63FF"/>
<path opacity="0.1" d="M449.593 439.653H448.945V503.072C441.645 502.405 434.366 501.499 427.109 500.353C394.438 495.194 362.588 485.171 332.471 470.569C323.776 466.348 315.258 461.741 306.916 456.746C292.983 448.421 279.635 439.006 266.977 428.577C263.798 425.949 260.66 423.261 257.563 420.512C255.418 418.604 253.286 416.648 251.129 414.747C249.632 413.44 248.122 412.154 246.593 410.924V336.003H407.639C407.529 335.556 407.418 335.109 407.302 334.668C407.425 335.109 407.542 335.556 407.652 336.003H448.945V439.611C449.165 439.618 449.379 439.639 449.593 439.653Z" fill="#6C63FF"/>
<path opacity="0.1" d="M555.272 128.71H528.706V119.807H540.615V93.2864C541.648 93.6917 542.676 94.1087 543.7 94.5373V119.807H555.272V128.71Z" fill="#6C63FF"/>
<path opacity="0.1" d="M619.275 233.352H488.858C488.858 233.352 488.858 233.352 488.903 233.387L488.845 233.352H464.651V135.971H471.506V207.95H502.834V165.322H528.713V131.701H555.278V165.349H581.157V207.978H619.275V233.352Z" fill="#6C63FF"/>
<path opacity="0.1" d="M464.651 236.336V333.012H619.275V236.336H464.651ZM661.249 446.809L661.463 370.288H619.275V336.045H464.651V504.113C477.328 504.687 490.024 504.524 502.685 503.624H502.905C508.953 503.214 514.972 502.618 520.963 501.835H521.099C553.063 497.823 584.317 488.828 613.885 475.133" fill="#6C63FF"/>
<path opacity="0.1" d="M679.903 336.003H715.974C715.657 355.633 712.002 374.914 704.007 392.72C697.352 407.514 688.106 420.449 677.182 431.749V370.253H679.903V336.003Z" fill="#6C63FF"/>
<path opacity="0.1" d="M715.994 333.012H679.903V252.221H699.432C709.54 277.693 715.961 305.646 715.994 333.012Z" fill="#6C63FF"/>
<path opacity="0.1" d="M448.951 163.036H427.109V193.568H448.951V163.036Z" fill="#6C63FF"/>
<path opacity="0.1" d="M448.951 226.322H427.109V233.352H448.951V226.322Z" fill="#6C63FF"/>
<path opacity="0.1" d="M448.951 236.336H427.109V256.847H448.951V236.336Z" fill="#6C63FF"/>
<path opacity="0.1" d="M448.951 289.608H427.109V320.14H448.951V289.608Z" fill="#6C63FF"/>
<path opacity="0.1" d="M448.951 352.894H427.109V383.426H448.951V352.894Z" fill="#6C63FF"/>
<path opacity="0.1" d="M448.945 439.611C449.165 439.611 449.379 439.611 449.593 439.653H448.945V446.746H427.109V416.18H448.945V439.611Z" fill="#6C63FF"/>
<path opacity="0.1" d="M448.945 479.451V503.037C441.645 502.371 434.366 501.464 427.109 500.318V479.451H448.945Z" fill="#6C63FF"/>
<path opacity="0.1" d="M340.201 330.769H246.593V333.012H340.201V330.769Z" fill="#6C63FF"/>
<path opacity="0.1" d="M340.201 335.996H246.593V344.592H340.201V335.996Z" fill="#6C63FF"/>
<path opacity="0.1" d="M340.201 372.768H246.593V386.591H340.201V372.768Z" fill="#6C63FF"/>
<path opacity="0.1" d="M340.195 414.768V428.591H266.977C263.798 425.972 260.658 423.284 257.556 420.526C255.412 418.618 253.286 416.662 251.122 414.768H340.195Z" fill="#6C63FF"/>
<path opacity="0.1" d="M340.195 456.76V470.569H332.465C323.778 466.344 315.262 461.734 306.916 456.74L340.195 456.76Z" fill="#6C63FF"/>
<path opacity="0.1" d="M521.119 245.708H502.692V265.582H521.119V245.708Z" fill="#6C63FF"/>
<path opacity="0.1" d="M122.13 153.106H103.703V172.981H122.13V153.106Z" fill="#6C63FF"/>
<path opacity="0.1" d="M122.13 199.271H103.703V219.145H122.13V199.271Z" fill="#6C63FF"/>
<path opacity="0.1" d="M122.13 245.435H103.703V265.31H122.13V245.435Z" fill="#6C63FF"/>
<path opacity="0.1" d="M122.13 291.593H103.703V311.467H122.13V291.593Z" fill="#6C63FF"/>
<path opacity="0.1" d="M122.13 337.757H103.703V357.632H122.13V337.757Z" fill="#6C63FF"/>
<path opacity="0.1" d="M122.13 383.922H103.703V403.796H122.13V383.922Z" fill="#6C63FF"/>
<path opacity="0.1" d="M591.466 245.708H573.038V265.582H591.466V245.708Z" fill="#6C63FF"/>
<path opacity="0.1" d="M521.119 294.73H502.692V314.605H521.119V294.73Z" fill="#6C63FF"/>
<path opacity="0.1" d="M591.466 294.73H573.038V314.605H591.466V294.73Z" fill="#6C63FF"/>
<path opacity="0.1" d="M521.119 343.746H502.692V363.621H521.119V343.746Z" fill="#6C63FF"/>
<path opacity="0.1" d="M591.466 343.746H573.038V363.621H591.466V343.746Z" fill="#6C63FF"/>
<path opacity="0.1" d="M521.119 392.769H502.692V412.643H521.119V392.769Z" fill="#6C63FF"/>
<path opacity="0.1" d="M591.466 392.769H573.038V412.643H591.466V392.769Z" fill="#6C63FF"/>
<path opacity="0.1" d="M521.119 441.792H502.692V461.666H521.119V441.792Z" fill="#6C63FF"/>
<path opacity="0.1" d="M591.466 441.792H573.038V461.666H591.466V441.792Z" fill="#6C63FF"/>
<path opacity="0.1" d="M502.692 503.624V490.807H521.112V501.8L502.692 503.624Z" fill="#6C63FF"/>
<path opacity="0.1" d="M11.6629 208.509V219.879H74.7269V208.509H11.6629ZM17.9479 219.166H12.8033V209.208H17.9868L17.9479 219.166ZM24.2265 219.166H19.0429V209.208H24.2265V219.166ZM30.4921 219.166H25.3085V209.208H30.4921V219.166ZM36.7706 219.166H31.5935V209.208H36.7771L36.7706 219.166ZM43.0427 219.166H37.8591V209.208H43.0427V219.166ZM49.3212 219.166H44.1377V209.208H49.3212V219.166ZM55.5997 219.166H50.4162V209.208H55.5997V219.166ZM61.8718 219.166H56.6883V209.208H61.8718V219.166ZM68.1439 219.166H62.9603V209.208H68.1439V219.166ZM74.4159 219.166H69.2324V209.208H74.4159V219.166Z" fill="#6C63FF"/>
<path opacity="0.1" d="M11.6629 241.592V252.961H74.7269V241.592H11.6629ZM17.9479 252.242H12.8033V242.311H17.9868L17.9479 252.242ZM24.2265 252.242H19.0429V242.311H24.2265V252.242ZM30.4921 252.242H25.3085V242.311H30.4921V252.242ZM36.7706 252.242H31.5935V242.311H36.7771L36.7706 252.242ZM43.0427 252.242H37.8591V242.311H43.0427V252.242ZM49.3212 252.242H44.1377V242.311H49.3212V252.242ZM55.5997 252.242H50.4162V242.311H55.5997V252.242ZM61.8718 252.242H56.6883V242.311H61.8718V252.242ZM68.1439 252.242H62.9603V242.311H68.1439V252.242ZM74.4159 252.242H69.2324V242.311H74.4159V252.242Z" fill="#6C63FF"/>
<path opacity="0.1" d="M11.6629 274.688V286.079H74.7269V274.688H11.6629ZM17.9479 285.338H12.8033V275.401H17.9868L17.9479 285.338ZM24.2265 285.338H19.0429V275.401H24.2265V285.338ZM30.4921 285.338H25.3085V275.401H30.4921V285.338ZM36.7706 285.338H31.5935V275.401H36.7771L36.7706 285.338ZM43.0427 285.338H37.8591V275.401H43.0427V285.338ZM49.3212 285.338H44.1377V275.401H49.3212V285.338ZM55.5997 285.338H50.4162V275.401H55.5997V285.338ZM61.8718 285.338H56.6883V275.401H61.8718V285.338ZM68.1439 285.338H62.9603V275.401H68.1439V285.338ZM74.4159 285.338H69.2324V275.401H74.4159V285.338Z" fill="#6C63FF"/>
<path opacity="0.1" d="M11.6629 307.784V319.14H74.7269V307.784H11.6629ZM17.9479 318.435H12.8033V308.49H17.9868L17.9479 318.435ZM24.2265 318.435H19.0429V308.49H24.2265V318.435ZM30.4921 318.435H25.3085V308.49H30.4921V318.435ZM36.7706 318.435H31.5935V308.49H36.7771L36.7706 318.435ZM43.0427 318.435H37.8591V308.49H43.0427V318.435ZM49.3212 318.435H44.1377V308.49H49.3212V318.435ZM55.5997 318.435H50.4162V308.49H55.5997V318.435ZM61.8718 318.435H56.6883V308.49H61.8718V318.435ZM68.1439 318.435H62.9603V308.49H68.1439V318.435ZM74.4159 318.435H69.2324V308.49H74.4159V318.435Z" fill="#6C63FF"/>
<path opacity="0.1" d="M11.9351 340.874C12.1878 341.943 12.4728 343.012 12.7709 344.068V341.587H17.9544V351.524H15.1812C15.2655 351.755 15.3497 352.006 15.4339 352.223H74.727V340.874H11.9351ZM24.2459 351.524H19.0624V341.587H24.2459V351.524ZM30.5115 351.524H25.328V341.587H30.5115V351.524ZM36.79 351.524H31.5936V341.587H36.7771L36.79 351.524ZM43.0621 351.524H37.8786V341.587H43.0621V351.524ZM49.3406 351.524H44.1571V341.587H49.3406V351.524ZM55.6192 351.524H50.4357V341.587H55.6192V351.524ZM61.8912 351.524H56.7077V341.587H61.8912V351.524ZM68.1633 351.524H62.9798V341.587H68.1633V351.524ZM74.4354 351.524H69.2519V341.587H74.4354V351.524Z" fill="#6C63FF"/>
<path opacity="0.1" d="M26.5785 373.97C26.7405 374.194 26.896 374.446 27.0644 374.669H30.4921V379.442C30.8614 379.917 31.2242 380.393 31.6 380.84V374.641H36.7836V384.614H34.6842C34.8916 384.844 35.0924 385.089 35.3322 385.312H74.7464V373.97H26.5785ZM43.0427 384.614H37.8591V374.683H43.0427V384.614ZM49.3212 384.614H44.1377V374.683H49.3212V384.614ZM55.5997 384.614H50.4162V374.683H55.5997V384.614ZM61.8718 384.614H56.6883V374.683H61.8718V384.614ZM68.1439 384.614H62.9603V374.683H68.1439V384.614ZM74.4159 384.614H69.2324V374.683H74.4159V384.614Z" fill="#6C63FF"/>
<path opacity="0.1" d="M61.1721 407.06C61.7617 407.423 62.3643 407.759 62.9733 408.122V407.773H68.1569V410.917L69.2584 411.469V407.773H74.4419V413.817C74.5413 413.871 74.6455 413.913 74.7529 413.943V407.06H61.1721Z" fill="#6C63FF"/>
<path opacity="0.1" d="M407.302 334.661C407.425 335.109 407.529 335.556 407.645 335.996C407.542 335.556 407.431 335.109 407.302 334.661ZM97.5021 128.689V131.673H126.446V128.689H97.5021ZM407.302 334.661C407.425 335.109 407.529 335.556 407.645 335.996C407.542 335.556 407.431 335.109 407.302 334.661ZM407.302 334.661C407.425 335.109 407.529 335.556 407.645 335.996C407.542 335.556 407.431 335.109 407.302 334.661Z" fill="#6C63FF"/>
<path d="M299.089 265.324C299.089 265.324 296.536 264.939 296.536 260.928C296.536 256.917 294.709 249.425 294.709 249.425C294.709 249.39 293.128 236.378 290.945 234.31C288.761 232.241 285.956 220.096 285.956 220.096C285.956 220.096 285.476 213.506 284.498 212.087C283.519 210.668 282.197 207.195 280.247 202.241C278.297 197.286 270.165 193.855 270.165 193.855C270.165 193.855 255.463 184.658 251.297 181.66C250.918 181.414 250.565 181.126 250.241 180.801C249.515 179.773 246.353 179.752 246.353 179.752C246.023 177.502 245.705 174.916 245.602 172.575C245.602 172.324 245.602 172.072 245.569 171.821C250.215 168.859 253.714 164.189 255.425 158.669C255.502 158.403 255.567 158.124 255.638 157.858C255.917 157.759 256.173 157.599 256.39 157.387C256.608 157.175 256.782 156.917 256.902 156.628C257.278 155.727 257.284 154.671 257.751 153.833C258.295 152.841 259.332 152.309 260.148 151.562C262.208 149.675 262.74 146.495 262.643 143.602C262.578 141.261 262.228 138.899 262.364 136.572L262.403 135.985C262.442 135.635 262.487 135.286 262.545 134.951C262.863 133.217 263.556 131.582 263.945 129.863C264.334 128.144 264.373 126.208 263.465 124.727C262.137 122.553 259.371 122.12 256.941 121.896C254.187 121.645 251.725 121.973 249.962 119.506C249.138 118.217 248.21 117.008 247.189 115.894C246.826 115.53 243.302 113.21 243.302 113.056C239.861 111.338 235.962 111.015 232.319 112.148C230.492 112.721 228.768 113.657 226.915 114.125C222.917 115.146 218.317 114.042 214.922 116.508C213.03 117.906 211.896 120.128 210.833 122.295C209.969 124.079 209.093 125.861 208.203 127.641C206.771 130.569 205.313 133.546 204.71 136.788C204.584 137.494 204.506 138.209 204.477 138.927V138.962C204.477 139.22 204.477 139.479 204.477 139.738V140.066C204.477 140.311 204.477 140.548 204.516 140.765C204.555 140.981 204.548 141.051 204.568 141.198C204.587 141.345 204.62 141.673 204.658 141.897C204.697 142.121 204.775 142.512 204.853 142.819C204.885 142.952 204.931 143.078 204.969 143.204C205.034 143.441 205.112 143.672 205.196 143.903C205.242 144.021 205.287 144.147 205.339 144.266C205.436 144.511 205.553 144.748 205.669 144.965C205.721 145.063 205.76 145.153 205.812 145.244C205.993 145.569 206.192 145.882 206.408 146.181C207.794 148.047 209.835 149.235 211.345 150.982C211.345 151.052 211.345 151.121 211.345 151.184C211.345 151.38 211.345 151.569 211.345 151.764C211.425 155.661 212.387 159.477 214.146 162.881C215.906 166.285 218.409 169.174 221.44 171.297C221.44 171.562 221.472 171.835 221.485 172.1C221.612 174.175 221.588 176.256 221.414 178.327C221.15 177.992 220.82 177.725 220.448 177.546C220.075 177.367 219.671 177.28 219.263 177.292C218.985 177.278 218.706 177.304 218.434 177.369L218.375 177.32V177.383C216.95 177.761 215.194 179.361 213.516 183.91C213.516 183.91 208.41 190.116 204.522 189.857C200.635 189.599 190.793 196.315 190.793 196.315C190.793 196.315 181.19 203.037 179.13 209.886C177.978 213.769 176.597 217.569 174.996 221.263L163.125 247.643L160.935 268.573C160.935 268.573 162.147 277.882 161.907 279.3C161.668 280.719 166.89 293.514 166.89 293.514C166.89 293.514 184.145 326.213 191.194 327.89L191.7 327.505C192.001 327.675 192.321 327.804 192.652 327.89L194.103 326.786C194.191 328.016 194.154 329.253 193.993 330.475C193.021 333.704 194.356 354.774 196.054 358.904C197.751 363.034 197.149 417.186 197.149 417.186L196.909 421.966C196.909 421.966 196.909 422.12 196.967 422.385L196.909 423.517L197.084 423.615C197.266 425.131 197.207 426.67 196.909 428.164C196.3 430.261 196.054 436.187 196.054 436.187C196.054 436.187 191.201 469.647 193.501 476.37C195.801 483.092 197.758 490.458 197.758 490.458C197.758 490.458 200.188 498.844 197.875 500.276C195.561 501.709 188.985 504.113 190.339 507.607C191.57 510.836 196.242 519.487 196.935 520.752L196.877 521.416L195.924 532.548C196.078 534.018 196.448 535.452 197.019 536.797C198.062 539.222 200.09 541.738 203.946 541.465C204.594 541.416 205.345 541.333 206.071 541.228C213.127 540.207 221.816 536.811 221.816 536.811C221.365 536.502 220.951 536.134 220.585 535.714C220.238 535.352 219.963 534.917 219.777 534.436C219.591 533.956 219.498 533.439 219.503 532.919C219.606 530.892 216.088 521.234 215.213 518.858C215.077 518.516 215.006 518.32 215.006 518.32C215.006 518.32 223.028 509.277 221.693 501.262C221.693 501.262 212.816 495.671 215.738 492.603C218.66 489.535 223.883 480.723 223.883 480.723C223.883 480.723 224.123 447.774 223.883 442.854C223.633 439.439 223.783 436.004 224.33 432.63C224.427 432.12 224.544 431.624 224.667 431.134C228.708 431.785 232.788 432.119 236.874 432.134C238.364 432.134 239.88 432.134 241.41 432.036C241.41 432.502 241.429 433.005 241.468 433.545C241.805 441.708 242.433 456.02 242.945 461.338C243.671 468.962 247.682 489.508 247.682 489.508C247.682 489.508 240.03 494.805 249.016 507.859C249.016 507.859 249.016 512.59 248.42 513.275C247.784 515.513 247.271 517.791 246.885 520.095C246.509 522.555 246.353 525.043 246.962 526.336C248.42 529.425 257.168 529.173 257.168 529.173L257.381 529.131C259.033 528.947 260.702 529.118 262.291 529.635C263.88 530.152 265.359 531.005 266.64 532.143C269.964 535.022 282.58 533.757 289.409 532.842C292.085 532.478 293.873 532.143 293.873 532.143C293.96 531.816 293.991 531.475 293.964 531.137C293.893 529.327 292.577 525.357 283.662 521.814C283.662 521.814 275.277 515.734 275.394 510.437H275.219H274.247C274.953 510.395 275.407 510.437 275.407 510.437C275.407 510.437 272.122 497.509 273.463 496.461C274.804 495.413 270.787 481.087 270.787 481.087C270.787 481.087 268.487 457.047 268.364 455.363C268.369 453.918 268.572 452.481 268.967 451.1L268.364 437.92C268.364 437.92 268.247 433.538 268.364 432.113C268.344 430.875 268.251 429.641 268.085 428.416C268.027 427.927 267.969 427.417 267.904 426.914C271.046 426.054 273.087 425.257 273.087 425.257L272.725 379.379C275.394 373.789 275.887 361.524 275.874 352.824C275.874 347.233 275.64 343.096 275.64 343.096L279.288 336.674C279.288 336.674 280.131 328.987 278.796 327.303C278.206 326.541 278.472 325.751 278.958 325.101C279.21 324.886 279.476 324.689 279.755 324.514C279.755 324.514 279.716 324.452 279.67 324.361C279.925 324.131 280.196 323.923 280.48 323.739C280.48 323.739 279.185 321.572 280.344 320.657C281.433 321.454 282.405 322.055 283.143 322.544C283.092 323.054 283.04 323.347 283.04 323.347L283.351 322.649C284.064 323.082 284.498 323.347 284.498 323.347C284.498 323.347 290.212 311.069 290.089 309.259C289.966 307.449 293.977 299.825 293.977 299.825C293.977 299.825 294.463 295.821 296.653 294.143C298.843 292.466 298.351 280.314 298.351 280.314C298.351 280.314 298.96 273.982 300.418 271.397C301.875 268.811 299.089 265.324 299.089 265.324ZM189.743 259.936L189.853 262.864C189.205 261.739 188.739 260.928 188.739 260.928L189.743 259.936Z" fill="url(#paint0_linear_2241_3370)"/>
<path d="M284.809 318.043L283.409 324.473C283.409 324.473 272.2 318.302 270.178 310.461C268.157 302.62 273.56 299.643 273.56 299.643L284.005 304.416L284.809 318.043Z" fill="white"/>
<path opacity="0.1" d="M284.809 318.043L283.409 324.473C283.409 324.473 272.2 318.302 270.178 310.461C268.157 302.62 273.56 299.643 273.56 299.643L284.005 304.416L284.809 318.043Z" fill="black"/>
<path d="M221.9 536.853C221.9 536.853 211.533 540.962 204.406 541.479C200.622 541.752 198.633 539.25 197.609 536.839C197.05 535.499 196.689 534.072 196.54 532.611L197.466 521.535L197.959 515.637L213.101 511.395L215.246 518.467L215.447 519.005C216.308 521.367 219.762 530.976 219.658 532.982C219.654 533.495 219.746 534.004 219.929 534.479C220.111 534.953 220.381 535.383 220.721 535.742C221.069 536.165 221.465 536.538 221.9 536.853Z" fill="white"/>
<path d="M292.713 531.22C292.739 531.557 292.709 531.895 292.623 532.22C292.623 532.22 270.45 536.21 265.915 532.22C264.636 531.054 263.145 530.19 261.538 529.682C259.932 529.174 258.244 529.034 256.584 529.271C256.584 529.271 248.006 529.522 246.574 526.475C245.978 525.197 246.133 522.716 246.502 520.27C246.879 517.978 247.381 515.712 248.006 513.484L248.349 513.191L250.39 511.423L274.286 510.661H274.467C274.351 515.93 282.58 521.975 282.58 521.975C291.32 525.469 292.61 529.418 292.713 531.22Z" fill="white"/>
<path opacity="0.1" d="M292.714 531.221C292.736 531.557 292.703 531.896 292.616 532.22C292.616 532.22 270.45 536.21 265.915 532.22C264.637 531.055 263.147 530.191 261.542 529.683C259.936 529.175 258.25 529.035 256.591 529.271C256.591 529.271 248.006 529.522 246.58 526.475C245.984 525.19 246.133 522.716 246.502 520.27C249.807 520.626 255.023 521.514 257.07 523.631C260.167 526.853 265.416 530.067 268.636 530.319C271.157 530.494 286.234 531.011 292.714 531.221Z" fill="black"/>
<path opacity="0.1" d="M221.9 536.853C221.9 536.853 211.533 540.962 204.406 541.479C200.622 541.752 198.633 539.25 197.615 536.832C200.252 537.789 203.913 538.796 205.838 537.873C208.118 536.783 216.205 536.077 220.74 535.777C221.086 536.184 221.475 536.546 221.9 536.853Z" fill="black"/>
<path d="M237.282 205.714C228.729 202.129 217.727 190.284 220.475 184.749C221.085 183.352 221.447 181.845 221.544 180.304C221.72 178.213 221.746 176.111 221.621 174.015C221.429 170.583 221.046 167.167 220.475 163.784C220.475 163.784 247.176 164.434 245.621 168.676C245.168 169.92 245.096 172.079 245.219 174.497C245.343 176.915 245.667 179.648 246.003 181.961C246.47 185.133 246.937 187.551 246.937 187.551C246.937 187.551 245.304 190.018 244.345 190.151C243.386 190.284 249.554 210.822 237.282 205.714Z" fill="#CF6F80"/>
<path opacity="0.1" d="M215.427 519.005L215.226 519.243C207.244 508.83 197.589 521.807 197.589 521.807L197.447 521.535L197.939 515.637L213.082 511.395L215.226 518.467L215.427 519.005Z" fill="black"/>
<path opacity="0.1" d="M274.474 511.395C274.474 511.395 268.643 511.262 265.532 514.225C262.422 517.188 247.39 514.868 248.038 514.225C248.23 513.906 248.346 513.541 248.375 513.163L250.416 511.395L274.312 510.633C274.403 511.101 274.474 511.395 274.474 511.395Z" fill="black"/>
<path d="M225.36 429.625C224.926 430.783 224.596 431.984 224.375 433.21C223.835 436.568 223.685 439.986 223.928 443.385C224.168 448.277 223.928 481.059 223.928 481.059C223.928 481.059 218.803 489.801 215.946 492.883C213.088 495.965 221.777 501.499 221.777 501.499C223.073 509.466 215.22 518.467 215.22 518.467C207.237 508.054 197.583 521.039 197.583 521.039C197.583 521.039 192.335 511.255 191.026 507.761C189.717 504.267 196.151 501.849 198.412 500.43C200.674 499.012 198.302 490.647 198.302 490.647C198.302 490.647 196.391 483.316 194.123 476.628C191.855 469.94 196.624 436.648 196.624 436.648C196.624 436.648 196.87 430.736 197.46 428.675C197.757 427.187 197.816 425.655 197.635 424.146C197.596 423.636 197.55 423.21 197.518 422.923C197.486 422.637 197.46 422.504 197.46 422.504L197.551 422.336L200.79 415.823C200.79 415.823 226.915 425.523 225.36 429.625Z" fill="#20A4B6"/>
<path d="M274.474 510.626C274.474 510.626 268.643 510.493 265.532 513.421C262.422 516.349 247.39 514.064 248.038 513.421C248.686 512.778 248.634 508.019 248.634 508.019C239.816 495.035 247.338 489.766 247.338 489.766C247.338 489.766 243.399 469.325 242.686 461.743C242.187 456.446 241.572 442.211 241.241 434.084C241.099 430.589 241.014 428.185 241.014 428.185L248.219 426.62L249.146 426.417L266.524 422.658C266.524 422.658 267.003 426.152 267.327 429.01C267.489 430.23 267.58 431.46 267.599 432.693C267.483 434.091 267.599 438.465 267.599 438.465L268.189 451.582C267.804 452.958 267.605 454.387 267.599 455.824C267.716 457.494 269.977 481.408 269.977 481.408C269.977 481.408 273.91 495.678 272.569 496.705C271.228 497.733 274.474 510.626 274.474 510.626Z" fill="#20A4B6"/>
<path opacity="0.1" d="M245.621 168.676C245.168 169.92 245.096 172.079 245.22 174.497C241.643 176.82 237.531 178.008 233.357 177.924C229.183 177.84 225.115 176.487 221.622 174.022C221.429 170.588 221.046 167.169 220.475 163.784C220.475 163.784 247.176 164.42 245.621 168.676Z" fill="black"/>
<path d="M255.943 153.232C255.948 155.75 255.581 158.253 254.854 160.646C253.231 166.009 249.902 170.58 245.456 173.551C241.011 176.523 235.734 177.704 230.559 176.885C225.384 176.066 220.644 173.301 217.177 169.077C213.709 164.854 211.738 159.444 211.611 153.805C211.611 153.609 211.611 153.427 211.611 153.232C211.561 150.057 212.097 146.904 213.188 143.956C214.28 141.007 215.905 138.323 217.968 136.059C220.032 133.794 222.493 131.996 225.208 130.769C227.922 129.541 230.837 128.909 233.78 128.909C236.724 128.909 239.638 129.541 242.353 130.769C245.067 131.996 247.528 133.794 249.592 136.059C251.655 138.323 253.28 141.007 254.372 143.956C255.463 146.904 256 150.057 255.949 153.232H255.943Z" fill="#CF6F80"/>
<path opacity="0.1" d="M237.282 205.714C228.729 202.129 217.727 190.284 220.475 184.749C221.085 183.352 221.447 181.845 221.544 180.304L233.252 190.682L240.496 197.09L246.003 181.968C246.47 185.14 246.937 187.558 246.937 187.558C246.937 187.558 245.304 190.025 244.345 190.158C243.386 190.291 249.554 210.822 237.282 205.714Z" fill="black"/>
<path d="M267.561 251.578L257.783 428.73L245.032 429.632L212.013 326.911L217.429 204.959L218.57 179.193L233.252 192.198L240.503 198.607L246.172 183.044L256.714 192.953L267.561 251.578Z" fill="#20A4B6"/>
<path opacity="0.1" d="M225.36 429.625C224.926 430.783 224.596 431.984 224.375 433.21C215.097 431.665 206.085 428.629 197.641 424.202L197.466 424.104L197.525 422.979L197.557 422.392L200.797 415.879C200.797 415.879 226.915 425.523 225.36 429.625Z" fill="black"/>
<path opacity="0.1" d="M248.368 433.238C245.997 433.673 243.604 433.967 241.202 434.119C241.06 430.624 240.975 428.22 240.975 428.22L248.181 426.655L248.368 433.238Z" fill="black"/>
<path opacity="0.1" d="M267.288 429.045C262.682 430.338 255.567 431.791 249.198 430.883L249.107 426.452L266.485 422.693C266.485 422.693 266.964 426.152 267.288 429.045Z" fill="black"/>
<path opacity="0.1" d="M249.081 431.693C222.516 436.585 198.185 422.56 198.185 422.56L198.419 417.808C198.419 417.808 199.021 363.935 197.35 359.805C195.678 355.675 194.376 334.731 195.322 331.517C196.268 328.302 191.868 280.097 191.868 280.097L191.155 260.53L165.069 249.132L176.732 222.912C178.307 219.236 179.662 215.454 180.788 211.591C182.816 204.784 192.231 198.096 192.231 198.096C192.231 198.096 201.885 191.416 205.702 191.667C209.518 191.919 214.52 185.755 214.52 185.755C218.213 175.601 221.557 180.2 221.557 180.2C221.557 180.682 221.557 180.2 221.375 181.702C220.079 192.848 242.33 228.069 242.647 228.691L244.766 284.36L246.911 354.808L249.081 431.693Z" fill="black"/>
<path d="M248.368 431.694C221.803 436.585 197.466 422.56 197.466 422.56L197.706 417.808C197.706 417.808 198.309 363.935 196.63 359.805C194.952 355.675 193.656 334.731 194.609 331.517C195.561 328.302 191.155 280.097 191.155 280.097L190.436 260.53L164.337 249.09L176 222.87C177.572 219.192 178.927 215.411 180.056 211.549C182.078 204.742 191.499 198.055 191.499 198.055C191.499 198.055 201.153 191.374 204.963 191.625C208.773 191.877 213.781 185.713 213.781 185.713C217.481 175.559 221.557 180.158 221.557 180.158C221.557 180.64 221.168 180.856 221.375 181.66C224.226 192.471 241.617 228.027 241.934 228.649L244.079 284.318L246.224 354.767L248.368 431.694Z" fill="white"/>
<path opacity="0.1" d="M241.209 230.236C238.351 228.95 223.215 210.312 223.215 210.312V206.07C222.665 204.673 219.393 205.525 216.736 206.503L217.876 180.738L219.172 181.898C222.01 192.702 240.878 229.614 241.209 230.236Z" fill="black"/>
<path d="M241.928 228.691C239.064 227.405 223.928 208.768 223.928 208.768V204.526C223.377 203.128 220.105 203.981 217.449 204.959L218.596 179.193L219.892 180.353C222.736 191.157 241.61 228.076 241.928 228.691Z" fill="white"/>
<path opacity="0.1" d="M198.186 321.642C198.542 321.642 216.658 319.588 216.658 319.588C216.658 319.588 227.628 342.852 226.909 348.512C226.19 354.173 224.887 359.183 220.475 358.296C216.062 357.408 196.728 358.995 196.728 358.995L198.186 321.642Z" fill="black"/>
<path d="M197.466 320.098C197.823 320.098 215.939 318.043 215.939 318.043C215.939 318.043 226.902 341.314 226.189 346.968C225.477 352.621 224.161 357.639 219.755 356.751C215.349 355.864 196.008 357.45 196.008 357.45L197.466 320.098Z" fill="white"/>
<path d="M211.118 309.175C211.118 309.175 227.745 318.812 228.101 321.754C228.457 324.696 219.639 320.468 217.734 319.958C216.48 319.632 215.204 319.417 213.918 319.315L201.211 319.685L211.118 309.175Z" fill="#CF6F80"/>
<path opacity="0.1" d="M236.569 231.438C237.536 231.438 238.319 230.593 238.319 229.551C238.319 228.509 237.536 227.664 236.569 227.664C235.603 227.664 234.82 228.509 234.82 229.551C234.82 230.593 235.603 231.438 236.569 231.438Z" fill="black"/>
<path d="M236.569 230.669C237.536 230.669 238.319 229.824 238.319 228.782C238.319 227.74 237.536 226.895 236.569 226.895C235.603 226.895 234.82 227.74 234.82 228.782C234.82 229.824 235.603 230.669 236.569 230.669Z" fill="#3F3D56"/>
<path opacity="0.1" d="M239.79 313.116C240.756 313.116 241.539 312.272 241.539 311.23C241.539 310.188 240.756 309.343 239.79 309.343C238.824 309.343 238.04 310.188 238.04 311.23C238.04 312.272 238.824 313.116 239.79 313.116Z" fill="black"/>
<path d="M239.79 312.341C240.756 312.341 241.539 311.496 241.539 310.454C241.539 309.412 240.756 308.567 239.79 308.567C238.824 308.567 238.04 309.412 238.04 310.454C238.04 311.496 238.824 312.341 239.79 312.341Z" fill="#3F3D56"/>
<path opacity="0.1" d="M238.312 272.277C239.279 272.277 240.062 271.432 240.062 270.39C240.062 269.348 239.279 268.503 238.312 268.503C237.346 268.503 236.563 269.348 236.563 270.39C236.563 271.432 237.346 272.277 238.312 272.277Z" fill="black"/>
<path d="M238.312 271.508C239.279 271.508 240.062 270.664 240.062 269.621C240.062 268.579 239.279 267.735 238.312 267.735C237.346 267.735 236.563 268.579 236.563 269.621C236.563 270.664 237.346 271.508 238.312 271.508Z" fill="#3F3D56"/>
<path d="M278.64 318.924C278.64 318.924 279.832 320.853 278.64 321.754C277.448 322.655 278.757 324.836 278.757 324.836C278.757 324.836 275.783 326.716 277.092 328.407C278.401 330.098 277.571 337.736 277.571 337.736L273.995 344.123C273.995 344.123 274.208 348.24 274.221 353.802C274.221 362.482 273.748 374.683 271.131 380.246L271.493 425.886C271.493 425.886 258.969 430.82 248.485 429.317L246.93 356.08C246.93 356.08 249.198 314.549 250.034 306.582C250.523 302.447 250.722 298.277 250.63 294.108C250.63 294.108 250.273 281.641 249.075 275.855C249.075 275.855 247.779 250.788 247.649 243.849C247.591 240.529 247.753 230.844 247.934 221.633C248.135 211.563 248.362 202.066 248.362 202.066L245.997 181.884C245.997 181.884 248.362 181.625 249.075 182.652C249.394 182.974 249.741 183.262 250.111 183.512C254.193 186.489 268.617 195.644 268.617 195.644C268.617 195.644 276.599 199.068 278.511 203.974C280.422 208.879 281.75 212.36 282.677 213.757C283.603 215.155 284.109 221.724 284.109 221.724C284.109 221.724 286.856 233.814 289.001 235.861C291.145 237.909 292.714 250.935 292.714 250.935L273.761 267.008C273.761 267.008 272.096 293.745 271.74 294.779C271.383 295.814 278.64 318.924 278.64 318.924Z" fill="white"/>
<path d="M279.359 318.924C279.359 318.924 280.545 320.853 279.359 321.754C278.174 322.656 279.47 324.836 279.47 324.836C279.47 324.836 276.515 326.737 277.811 328.428C279.107 330.119 278.29 337.757 278.29 337.757L274.714 344.145C274.714 344.145 274.928 348.261 274.947 353.823C274.947 362.503 274.474 374.704 271.856 380.267L272.213 425.907C272.213 425.907 259.669 430.841 249.198 429.339L247.649 356.101C247.649 356.101 249.917 314.57 250.753 306.603C251.243 302.468 251.44 298.298 251.343 294.129C251.343 294.129 250.986 281.662 249.794 275.876C249.794 275.876 248.498 250.809 248.362 243.87C248.304 240.55 248.472 230.865 248.647 221.654C248.848 211.584 249.075 202.087 249.075 202.087L245.952 181.632C245.952 181.632 249.075 181.632 249.794 182.673C250.11 182.999 250.458 183.287 250.831 183.533C254.913 186.51 269.342 195.665 269.342 195.665C269.342 195.665 277.318 199.089 279.23 203.995C281.141 208.9 282.47 212.381 283.403 213.778C284.336 215.176 284.828 221.745 284.828 221.745C284.828 221.745 287.575 233.835 289.72 235.882C291.865 237.93 293.413 250.928 293.413 250.928L274.461 267.001C274.461 267.001 272.796 293.738 272.433 294.772C272.07 295.807 279.359 318.924 279.359 318.924Z" fill="white"/>
<path opacity="0.1" d="M256.662 208.02L258.373 213.401L249.366 223.184C249.567 213.121 249.794 203.617 249.794 203.617L246.671 183.163C246.671 183.163 249.794 183.163 250.513 184.204C250.829 184.528 251.176 184.814 251.55 185.056L259.209 208.886L256.662 208.02Z" fill="black"/>
<path d="M255.943 206.475L257.66 211.856L248.654 221.64C248.854 211.57 249.081 202.073 249.081 202.073L245.952 181.618C245.952 181.618 249.081 181.618 249.794 182.659C250.112 182.983 250.459 183.271 250.831 183.519L258.496 207.342L255.943 206.475Z" fill="white"/>
<path opacity="0.1" d="M255.943 153.232C255.948 155.75 255.581 158.253 254.854 160.646C254.732 160.667 254.607 160.661 254.487 160.628C254.367 160.596 254.254 160.538 254.155 160.458C253.986 154.168 251.116 148.263 247.585 143.239C246.593 141.722 245.391 140.378 244.021 139.255C242.635 138.133 240.912 137.607 239.187 137.781C237.243 138.067 235.526 139.493 233.563 139.675C230.971 139.905 228.652 137.969 226.079 137.872C225.034 137.882 224.002 138.133 223.053 138.608C222.105 139.083 221.261 139.771 220.578 140.625C219.227 142.349 218.223 144.358 217.63 146.523C216.611 149.806 216.057 153.237 215.984 156.698C215.952 158.655 215.777 161.108 214.092 161.82C214.219 160.381 214.068 158.93 213.647 157.557C213.227 156.185 212.547 154.921 211.65 153.847L211.611 153.805C211.611 153.609 211.611 153.427 211.611 153.232C211.561 150.057 212.097 146.904 213.188 143.956C214.28 141.007 215.905 138.323 217.968 136.059C220.032 133.794 222.493 131.996 225.208 130.769C227.922 129.541 230.837 128.909 233.78 128.909C236.724 128.909 239.638 129.541 242.353 130.769C245.067 131.996 247.528 133.794 249.592 136.059C251.655 138.323 253.28 141.007 254.372 143.956C255.463 146.904 256 150.057 255.949 153.232H255.943Z" fill="black"/>
<path d="M242.958 115.265C239.591 113.556 235.762 113.233 232.189 114.356C230.395 114.929 228.704 115.859 226.883 116.327C222.995 117.34 218.46 116.243 215.123 118.696C213.27 120.094 212.155 122.302 211.118 124.447L208.527 129.772C207.114 132.686 205.689 135.649 205.099 138.857C204.509 142.065 204.866 145.657 206.751 148.235C208.125 150.115 210.153 151.296 211.643 153.064C212.536 154.14 213.213 155.402 213.632 156.773C214.052 158.144 214.204 159.594 214.08 161.031C215.771 160.332 215.933 157.872 215.971 155.915C216.044 152.454 216.599 149.024 217.617 145.74C218.209 143.575 219.213 141.566 220.565 139.842C221.249 138.989 222.093 138.302 223.041 137.827C223.989 137.352 225.021 137.101 226.066 137.089C228.658 137.187 230.984 139.116 233.55 138.885C235.494 138.71 237.217 137.278 239.174 136.998C240.9 136.822 242.624 137.348 244.008 138.473C245.378 139.594 246.578 140.938 247.565 142.456C251.103 147.481 253.973 153.372 254.142 159.675C254.874 160.255 255.93 159.5 256.293 158.606C256.656 157.711 256.669 156.663 257.129 155.811C257.66 154.825 258.677 154.301 259.474 153.56C261.496 151.68 262.001 148.515 261.923 145.643C261.846 142.77 261.327 139.856 261.833 137.033C262.137 135.3 262.824 133.679 263.2 131.967C263.576 130.254 263.621 128.333 262.733 126.858C261.437 124.692 258.71 124.266 256.332 124.063C253.63 123.811 251.213 124.133 249.489 121.68C248.68 120.4 247.77 119.198 246.768 118.088C246.425 117.724 242.958 115.418 242.958 115.265Z" fill="#512E4E"/>
<path opacity="0.1" d="M172.534 262.633L165.763 249.132L163.618 269.964C163.618 269.964 164.81 279.216 164.57 280.635C164.331 282.054 169.456 294.772 169.456 294.772C169.456 294.772 186.387 327.296 193.3 328.973L216.658 310.971L210.464 302.487C210.464 302.487 208.319 301.586 207.782 302.487C207.782 302.487 196.281 281.145 195.088 279.601C193.896 278.056 194.129 274.974 194.129 274.974C194.129 274.974 192.341 272.92 192.937 270.991C193.533 269.062 189.484 262.375 189.484 262.375L193.177 258.65L172.534 262.633Z" fill="black"/>
<path d="M166.119 247.594L164.331 249.132L162.186 269.964C162.186 269.964 163.378 279.216 163.138 280.635C162.899 282.054 168.03 294.772 168.03 294.772C168.03 294.772 184.955 327.296 191.868 328.973L215.233 310.971L209.032 302.487C209.032 302.487 206.887 301.586 206.35 302.487C206.35 302.487 194.849 281.145 193.656 279.601C192.464 278.056 192.704 274.975 192.704 274.975C192.704 274.975 190.916 272.92 191.512 270.991C192.108 269.062 188.052 262.375 188.052 262.375L191.745 258.65L166.119 247.594Z" fill="white"/>
<path opacity="0.1" d="M277.092 329.203C278.388 330.902 277.571 338.526 277.571 338.526L273.994 344.913C273.994 344.913 274.208 349.036 274.221 354.592L268.208 356.618C267.665 356.801 267.089 356.842 266.528 356.736C265.967 356.63 265.438 356.381 264.985 356.009C264.531 355.638 264.167 355.155 263.922 354.601C263.677 354.047 263.558 353.438 263.576 352.824L264.612 316.757L278.64 322.544C277.448 323.438 278.757 325.632 278.757 325.632C278.757 325.632 275.783 327.505 277.092 329.203Z" fill="black"/>
<path d="M277.811 328.428C279.107 330.126 278.29 337.757 278.29 337.757L274.714 344.145C274.714 344.145 274.928 348.261 274.947 353.823L268.824 355.885C268.292 356.063 267.728 356.102 267.179 355.998C266.63 355.893 266.112 355.649 265.669 355.286C265.225 354.922 264.868 354.449 264.628 353.907C264.388 353.364 264.272 352.768 264.288 352.167L265.332 315.989L279.366 321.775C278.167 322.67 279.476 324.857 279.476 324.857C279.476 324.857 276.515 326.737 277.811 328.428Z" fill="white"/>
<path d="M282.457 311.237C282.457 311.237 281.504 317.799 279.12 318.183C276.735 318.567 275.666 328.798 273.288 328.435C270.91 328.071 272.485 318.924 272.569 317.149C272.653 315.374 269.977 308.022 271.979 306.352C273.982 304.682 280.318 306.352 280.318 306.352L282.457 311.237Z" fill="#CF6F80"/>
<path opacity="0.1" d="M287.53 260.704L292.027 250.921C292.027 250.921 293.815 258.377 293.815 262.361C293.815 266.344 296.316 266.735 296.316 266.735C296.316 266.735 299.057 270.229 297.612 272.773C296.167 275.317 295.584 281.648 295.584 281.648C295.584 281.648 296.057 293.731 293.912 295.401C291.768 297.071 291.32 301.062 291.32 301.062C291.32 301.062 287.381 308.644 287.504 310.447C287.627 312.25 282.023 324.458 282.023 324.458C282.023 324.458 284.763 309.287 268.792 302.732C268.792 302.732 268.668 297.582 269.861 296.17C271.053 294.758 272.912 294.115 271.746 286.98C270.58 279.845 271.409 271.32 271.409 269.608C271.409 267.895 274.986 257.217 274.986 257.217L287.53 260.704Z" fill="black"/>
<path d="M289.474 249.523L293.4 250.921C293.4 250.921 295.195 258.377 295.195 262.361C295.195 266.344 297.696 266.735 297.696 266.735C297.696 266.735 300.437 270.229 298.992 272.773C297.547 275.317 296.971 281.648 296.971 281.648C296.971 281.648 297.444 293.731 295.299 295.401C293.154 297.071 292.675 301.062 292.675 301.062C292.675 301.062 288.742 308.644 288.865 310.447C288.988 312.25 283.377 324.458 283.377 324.458C283.377 324.458 286.124 309.287 270.146 302.732C270.146 302.732 270.029 297.582 271.221 296.17C272.414 294.758 274.273 294.115 273.107 286.98C271.941 279.845 272.77 271.32 272.77 269.607C272.77 267.895 276.347 257.217 276.347 257.217L289.474 249.523Z" fill="white"/>
<path opacity="0.1" d="M202.747 503.107C202.747 503.107 209.006 498.865 213.114 501.947C217.222 505.028 202.747 503.107 202.747 503.107Z" fill="black"/>
<path opacity="0.1" d="M251.381 489.99C251.381 489.99 256.921 489.221 261.574 494.623C266.226 500.025 251.381 489.99 251.381 489.99Z" fill="black"/>
<g opacity="0.1">
<path d="M259.487 152.03C258.69 152.771 257.666 153.302 257.135 154.287C256.682 155.133 256.669 156.174 256.306 157.082C255.943 157.991 254.887 158.732 254.155 158.159C253.986 151.869 251.109 145.964 247.578 140.932C246.591 139.414 245.391 138.07 244.021 136.949C242.634 135.825 240.908 135.299 239.181 135.475C237.237 135.761 235.526 137.187 233.563 137.361C230.971 137.599 228.645 135.663 226.073 135.565C225.028 135.577 223.996 135.829 223.049 136.305C222.101 136.781 221.259 137.47 220.578 138.326C219.226 140.047 218.222 142.053 217.63 144.217C216.612 147.501 216.057 150.93 215.984 154.392C215.946 156.342 215.777 158.774 214.105 159.5C214.144 160.017 214.144 160.535 214.105 161.052C215.79 160.353 215.959 157.893 215.997 155.936C216.07 152.475 216.624 149.045 217.643 145.761C218.235 143.595 219.239 141.587 220.591 139.863C221.273 139.01 222.116 138.323 223.063 137.848C224.011 137.373 225.041 137.122 226.086 137.11C228.678 137.208 231.01 139.136 233.576 138.906C235.52 138.731 237.243 137.299 239.194 137.019C240.921 136.843 242.647 137.369 244.034 138.494C245.404 139.615 246.604 140.958 247.591 142.477C251.122 147.501 253.999 153.393 254.168 159.696C254.9 160.276 255.956 159.521 256.319 158.627C256.682 157.732 256.695 156.684 257.148 155.831C257.679 154.846 258.703 154.322 259.5 153.581C261.522 151.701 262.027 148.536 261.949 145.664C261.949 145.573 261.949 145.482 261.949 145.398C261.826 147.886 261.211 150.423 259.487 152.03Z" fill="black"/>
<path d="M211.656 151.534C210.166 149.766 208.131 148.585 206.764 146.712C205.613 145.054 204.956 143.058 204.879 140.988C204.675 143.575 205.344 146.153 206.764 148.249C208.131 150.129 210.166 151.31 211.656 153.078C213.087 154.807 213.946 157 214.099 159.312C214.198 157.904 214.033 156.49 213.613 155.154C213.193 153.817 212.528 152.586 211.656 151.534Z" fill="black"/>
<path d="M263.213 130.436C262.83 132.148 262.15 133.776 261.839 135.503C261.655 136.656 261.588 137.828 261.638 138.997C261.66 138.331 261.727 137.667 261.839 137.012C262.15 135.279 262.83 133.658 263.213 131.946C263.436 131.001 263.508 130.023 263.427 129.052C263.386 129.519 263.315 129.981 263.213 130.436Z" fill="black"/>
</g>
<path opacity="0.1" d="M86.0011 531.521C120.87 531.521 149.136 526.625 149.136 520.584C149.136 514.544 120.87 509.648 86.0011 509.648C51.1325 509.648 22.8658 514.544 22.8658 520.584C22.8658 526.625 51.1325 531.521 86.0011 531.521Z" fill="#6C63FF"/>
<path d="M88.0357 311.076H83.9731V409.729H88.0357V311.076Z" fill="#535461"/>
<path d="M113.565 409.429L113.312 413.873L112.949 420.163L112.8 422.776L112.444 429.066L112.288 431.68L111.925 437.969L107.83 509.298C107.652 512.367 106.397 515.248 104.319 517.354C102.241 519.459 99.4979 520.632 96.6468 520.633H75.3555C72.5051 520.632 69.7623 519.459 67.6857 517.353C65.6091 515.247 64.3549 512.367 64.1785 509.298L60.103 437.92L59.7401 431.631L59.5911 429.017L59.2282 422.728L59.0792 420.114L58.7164 413.825L58.4572 409.38C58.4122 408.525 58.5297 407.668 58.8025 406.864C59.0753 406.059 59.4977 405.323 60.0438 404.7C60.5899 404.078 61.248 403.583 61.978 403.245C62.7079 402.906 63.4942 402.733 64.2886 402.734H107.837C108.628 402.741 109.41 402.924 110.133 403.269C110.857 403.615 111.507 404.117 112.044 404.745C112.581 405.372 112.992 406.111 113.254 406.917C113.516 407.723 113.621 408.578 113.565 409.429Z" fill="#3F3D56"/>
<path d="M113.312 413.873L112.949 420.142H59.0533L58.6904 413.873H113.312Z" fill="#9D9CB5"/>
<path d="M112.8 422.756L112.444 429.031H59.5652L59.2023 422.756H112.8Z" fill="#9D9CB5"/>
<path d="M112.288 431.652L111.932 437.92H60.077L59.7142 431.652H112.288Z" fill="#9D9CB5"/>
<path d="M52.4896 348.051C76.1459 366.514 86.0205 395.389 86.0205 395.389C86.0205 395.389 57.5112 394.334 33.8484 375.871C10.1856 357.408 0.330444 328.54 0.330444 328.54C0.330444 328.54 28.8269 329.588 52.4896 348.051Z" fill="#20A4B6"/>
<path d="M0.311035 328.54C0.311035 328.54 29.909 346.255 39.4013 360.923C48.8936 375.592 86.0206 395.389 86.0206 395.389" stroke="#535461" stroke-width="2" stroke-miterlimit="10"/>
<path d="M67.7616 310.859C80.6362 320.901 86.0205 336.618 86.0205 336.618C86.0205 336.618 70.5024 336.045 57.6213 326.003C44.7403 315.961 39.3688 300.237 39.3688 300.237C39.3688 300.237 54.8805 300.81 67.7616 310.859Z" fill="#20A4B6"/>
<path d="M39.3688 300.237C39.3688 300.237 55.4766 309.881 60.6407 317.861C65.8048 325.842 86.0205 336.618 86.0205 336.618" stroke="#535461" stroke-width="2" stroke-miterlimit="10"/>
<path d="M104.714 335.821C89.9212 353.355 86.7916 376.27 86.7916 376.27C86.7916 376.27 107.649 370.749 122.428 353.208C137.208 335.668 140.35 312.76 140.35 312.76C140.35 312.76 119.506 318.288 104.714 335.821Z" fill="#20A4B6"/>
<path d="M140.363 312.767C140.363 312.767 121.094 330.741 116.195 343.124C111.297 355.507 86.7916 376.27 86.7916 376.27" stroke="#535461" stroke-width="2" stroke-miterlimit="10"/>
<path d="M647.727 329.651C647.727 329.651 637.029 272.249 641.124 265.107C641.124 265.107 641.273 258.468 641.027 250.005C641.027 249.684 641.027 249.362 641.027 249.034C641.747 249.552 642.498 250.019 643.275 250.432C647.048 252.522 651.38 253.125 655.521 252.137L652.282 248.244C651.504 247.315 650.694 246.309 650.526 245.079C650.357 243.849 650.824 242.752 651.225 241.654C654.303 233.268 654.465 222.723 648.536 216.322C643.528 210.941 642.31 203.995 636.874 199.082C632.902 195.483 630.718 190.207 628.658 185.105C626.915 180.794 625.159 176.447 624.161 171.876C623.383 168.305 623.072 164.609 622.003 161.122C620.934 157.634 618.932 154.245 615.803 152.687C614.688 152.135 613.451 151.82 612.433 151.086C611.098 150.115 610.295 148.536 609.33 147.152C604.425 140.164 587.999 144.28 580.224 147.117C578.11 147.832 576.153 149.001 574.47 150.555L574.542 150.43C574.6 150.325 574.671 150.22 574.736 150.115C573.885 150.857 573.15 151.742 572.559 152.736C571.425 154.671 570.952 156.929 570.006 159.025C568.866 161.506 562.522 168.431 565.25 171.22C565.441 171.407 565.66 171.558 565.898 171.667C566.922 172.127 568.05 172.248 569.138 172.016L569.021 172.317C568.09 174.777 567.612 177.409 567.615 180.067C567.615 191.548 576.395 200.857 587.235 200.857C589.273 200.859 591.299 200.522 593.241 199.858C593.287 200.123 593.325 200.389 593.371 200.654C593.371 200.759 593.403 200.864 593.416 200.969L593.073 201.486C593.056 201.454 593.036 201.424 593.014 201.395L582.842 216.727C581.287 217.908 572.332 224.897 571.827 230.138C571.296 235.875 570.764 242.591 570.764 242.591L570.693 244.03C570.248 244.431 569.728 244.723 569.169 244.886C568.61 245.049 568.024 245.079 567.453 244.974C564.278 244.415 564.278 257.553 564.278 257.553C564.278 257.553 562.166 259.649 560.715 257.832C559.263 256.015 555.427 262.172 555.427 262.172L531.389 263.29L530.838 263.325L529.542 258.999C529.403 258.543 529.102 258.164 528.705 257.946C528.309 257.727 527.848 257.687 527.423 257.832C527.323 257.868 527.226 257.912 527.132 257.965L527.041 258.021L526.873 258.147L526.788 258.231C526.742 258.276 526.699 258.325 526.659 258.377L526.581 258.475L526.542 258.517C526.393 258.74 526.294 258.998 526.253 259.27C526.213 259.542 526.232 259.82 526.309 260.082L527.423 263.793C522.784 264.8 518.041 267.637 521.909 275.45L502.303 271.543L508.646 277.288L541.393 284.576C540.959 285.415 541.244 286.631 542.598 288.343C548.43 295.73 559.056 297.735 563.332 298.252C564.462 300.977 565.872 303.556 567.537 305.939L567.168 313.298C567.168 313.298 556.341 369.386 554.358 372.23C555.359 371.007 556.275 369.706 557.099 368.338C553.957 379.861 549.564 395.634 548.41 397.996C546.557 401.77 544.84 417.039 546.952 418.017C547.6 418.318 549.453 418.171 552.097 417.955V419.219L551.98 467.152C551.98 467.152 552.512 496.552 551.054 499.354C549.596 502.156 549.207 508.033 549.207 508.033C549.207 508.033 543.376 519.627 538.756 524.288C538.724 524.324 538.69 524.357 538.652 524.386L538.51 523.296C538.51 523.296 532.957 530.857 520.672 530.431C520.672 530.431 513.279 535.616 524.242 535.896C535.205 536.175 549.207 535.476 549.207 535.476C549.207 535.476 558.985 519.403 567.175 521.5V533.68H569.682V521.304C570.845 520.478 571.84 519.407 572.608 518.154C573.375 516.901 573.899 515.493 574.146 514.015C574.361 512.492 574.204 510.935 573.69 509.498C573.177 508.06 572.324 506.792 571.218 505.818C570.721 505.333 570.322 504.743 570.046 504.084C569.771 503.425 569.625 502.711 569.617 501.988L569.527 502.072C569.527 501.828 569.468 501.576 569.442 501.318C568.723 495.028 567.823 482.051 571.004 472.449C575.365 459.283 576.686 440.946 573.511 430.03C572.487 426.541 571.646 422.992 570.991 419.401C570.913 418.947 570.842 418.514 570.777 418.108C572.947 418.425 575.097 418.892 577.211 419.506C584.565 421.693 600.654 422.099 614.39 421.98C614.422 422.385 614.461 422.811 614.507 423.238C614.752 426.201 615.264 429.131 616.036 431.987C617.759 437.578 618.55 462.225 618.55 462.225C618.55 462.225 620.772 482.491 619.561 490.737C618.913 495.322 618.265 499.927 617.895 504.553V504.644C617.895 504.644 614.254 515.825 611.591 521.898C611.526 522.052 611.455 522.206 611.39 522.352C610.68 522.422 609.981 522.589 609.31 522.848C609.31 522.848 605.74 530.536 602.183 531.807C598.626 533.079 599.805 537.265 607.859 535.728C615.913 534.19 628.075 532.933 628.075 532.933L628.599 525.092L631.074 521.751L630.427 529.571L633.064 529.012L632.714 519.501L636.763 514.036C636.763 514.036 641.655 509.34 634.385 500.102V500.304C634.308 500.172 634.236 500.032 634.152 499.899V499.857C632.947 497.844 631.988 494.092 633.744 487.432C636.919 475.398 638.766 464.475 638.766 464.475C638.766 464.475 645.854 435.216 637.334 421.372H637.709C636.836 419.424 636.219 417.354 635.876 415.222C635.833 414.97 635.794 414.712 635.759 414.446C642.064 414.055 648.251 412.825 653.299 410.17C653.279 410.142 650.241 340.706 647.727 329.651ZM567.686 281.222V281.362L566.391 281.432L567.686 281.222ZM563.242 281.886C563.029 281.937 562.829 282.04 562.658 282.186C562.101 283.037 561.752 284.024 561.641 285.059L559.62 284.569C559.62 284.569 558.201 284.241 556.16 283.871L555.194 282.822C557.851 282.585 560.611 282.235 563.242 281.886Z" fill="url(#paint1_linear_2241_3370)"/>
<path d="M630.128 519.599L629.357 529.501L631.943 528.942L631.554 518.201L630.128 519.599Z" fill="#1D2366"/>
<path d="M571.146 472.582C568.03 482.156 568.911 495.077 569.611 501.353C569.87 503.673 570.11 505.084 570.11 505.084C570.11 505.084 565.451 516.531 565.062 516.964C564.674 517.398 551.352 526.168 551.352 526.168L542.041 532.031C542.041 532.031 532.594 527.566 537.123 526.028C538.048 525.628 538.882 525.015 539.566 524.232C544.101 519.585 549.797 508.033 549.797 508.033C549.797 508.033 550.186 502.17 551.611 499.382C553.037 496.594 552.518 467.292 552.518 467.292L552.628 419.527V413.3L570.349 413.44C570.461 415.554 570.717 417.656 571.114 419.73C571.75 423.309 572.574 426.846 573.583 430.324C576.706 441.219 575.41 459.465 571.146 472.582Z" fill="#FFB0B1"/>
<path opacity="0.1" d="M570.11 505.084C570.11 505.084 565.451 516.531 565.062 516.964C564.674 517.398 551.352 526.168 551.352 526.168L542.041 532.031C542.041 532.031 532.594 527.566 537.123 526.028C538.048 525.628 538.882 525.015 539.566 524.232L539.968 527.286L543.071 527.146L569.637 501.367C569.87 503.673 570.11 505.084 570.11 505.084Z" fill="black"/>
<path d="M569.786 502.016L543.071 527.971L539.968 528.111L539.32 523.219C539.32 523.219 533.89 530.752 521.825 530.333C521.825 530.333 514.581 535.497 525.318 535.777C536.054 536.056 549.764 535.358 549.764 535.358C549.764 535.358 559.341 519.285 567.356 521.381V533.52H569.818V521.269C570.963 520.438 571.94 519.366 572.69 518.117C573.441 516.868 573.949 515.468 574.185 514.001C574.398 512.491 574.248 510.946 573.747 509.517C573.247 508.087 572.414 506.821 571.328 505.839C570.843 505.349 570.456 504.757 570.191 504.099C569.926 503.442 569.788 502.733 569.786 502.016Z" fill="#1D2366"/>
<path d="M632.591 487.509C630.867 494.148 631.807 497.886 632.986 499.892V499.934C634.498 502.41 635.55 505.18 636.083 508.089L636.187 508.718L624.031 527.831L617.435 530.627C617.435 530.627 606.829 526.72 608.766 525.602C609.252 525.329 610.01 523.876 610.878 521.87C613.47 515.825 617.047 504.672 617.047 504.672V504.581C617.422 499.976 618.018 495.385 618.679 490.814C619.865 482.589 617.688 462.4 617.688 462.4C617.688 462.4 616.91 437.85 615.226 432.267C614.465 429.428 613.96 426.516 613.716 423.573C613.366 420.079 613.288 417.2 613.288 417.2C613.288 417.2 620.273 406.717 633.077 418.038C634.1 418.941 635.001 419.995 635.753 421.169C644.597 434.74 637.476 464.636 637.476 464.636C637.476 464.636 635.694 475.51 632.591 487.509Z" fill="#FFB0B1"/>
<path opacity="0.1" d="M636.206 508.718L624.051 527.831L617.455 530.627C617.455 530.627 606.848 526.72 608.785 525.602C609.271 525.329 610.029 523.876 610.898 521.87C615.388 521.828 617.714 526.441 617.714 526.441L623.403 525.462C623.403 525.462 630.906 509.557 632.591 508.586C634.275 507.614 632.85 501.325 632.85 501.325V499.724C632.895 499.78 632.934 499.843 632.986 499.899V499.941C634.498 502.417 635.55 505.187 636.083 508.096L636.206 508.718Z" fill="black"/>
<path d="M618.103 526.853C618.103 526.853 614.863 520.438 608.656 522.807C608.656 522.807 605.163 530.494 601.671 531.738C598.179 532.982 599.345 537.174 607.237 535.644C615.129 534.114 627.025 532.849 627.025 532.849L627.543 525.029L635.565 514.008C635.565 514.008 640.347 509.333 633.232 500.13V501.73C633.232 501.73 634.658 508.019 632.973 508.991C631.288 509.962 623.811 525.874 623.811 525.874L618.103 526.853Z" fill="#1D2366"/>
<path opacity="0.1" d="M570.369 413.426C570.481 415.54 570.736 417.642 571.134 419.716C563.838 418.562 557.067 419.136 552.628 419.513V413.286L570.369 413.426Z" fill="black"/>
<path opacity="0.1" d="M636.472 422.909C636.472 422.909 626.105 423.454 613.742 423.566C613.392 420.072 613.314 417.193 613.314 417.193C613.314 417.193 620.299 406.711 633.103 418.032C634.126 418.934 635.027 419.988 635.779 421.162C635.979 421.758 636.211 422.341 636.472 422.909Z" fill="black"/>
<path d="M636.472 421.651C636.472 421.651 591.064 424.02 577.224 419.834C563.384 415.648 549.667 419.275 547.6 418.304C545.533 417.333 547.212 402.119 549.026 398.352C550.84 394.586 560.792 356.493 560.792 356.493L570.369 302.641L580.457 299.643L581.17 299.426L598.749 294.199L611.63 290.363C611.63 290.363 637.243 398.213 635.046 406.165C634.249 409.211 634.12 412.414 634.671 415.523C635.006 417.645 635.612 419.708 636.472 421.651Z" fill="#1D2366"/>
<path d="M536.987 265.813C536.987 265.813 527.916 276.295 534.784 282.137C541.652 287.98 546.168 282.697 546.168 282.697L536.987 265.813Z" fill="#C7DAF5"/>
<path opacity="0.1" d="M536.987 265.813C536.987 265.813 527.916 276.295 534.784 282.137C541.652 287.98 546.168 282.697 546.168 282.697L536.987 265.813Z" fill="black"/>
<path d="M610.276 196.895C610.276 196.895 609.213 197.985 607.613 199.592C605.332 201.891 601.956 205.253 598.963 208.069C594.816 211.961 591.395 214.82 592.619 212.381C593.844 209.942 593.611 205.693 593.001 201.716C592.956 201.451 592.917 201.185 592.872 200.927C592.368 198.007 591.699 195.122 590.87 192.289C590.87 192.289 597.569 182.953 601.276 179.27C602.656 177.873 603.621 177.299 603.68 178.271C603.744 179.578 604.651 182.464 605.779 185.525C605.811 185.622 605.844 185.713 605.883 185.811C606.634 187.908 607.483 190.06 608.228 191.919C609.368 194.77 610.276 196.895 610.276 196.895Z" fill="#FFB0B1"/>
<path opacity="0.1" d="M605.883 185.811C605.253 189.463 603.725 192.866 601.459 195.664C599.194 198.462 596.272 200.552 593.001 201.716C592.486 198.526 591.774 195.377 590.87 192.289C590.87 192.289 603.485 174.714 603.68 178.271C603.725 179.62 604.71 182.611 605.883 185.811Z" fill="black"/>
<path opacity="0.1" d="M591.744 206.413L593.377 203.932C593.377 203.932 594.459 211.046 598.438 207.908C602.416 204.77 602.61 231.521 602.61 231.521L598.341 300.377L567.486 298.385L568.36 265.114L571.853 248.342L580.49 223.96L585.628 215.903L591.744 206.413Z" fill="black"/>
<path d="M602.61 231.948L598.723 294.206L598.315 300.803L581.112 299.692L580.464 299.65L567.505 298.812L568.38 265.533L571.872 248.762L580.509 224.379L585.647 216.322L591.764 206.797L593.397 204.323C593.397 204.323 594.479 211.437 598.457 208.299L598.541 208.237C602.429 205.581 602.61 231.948 602.61 231.948Z" fill="#1D2366"/>
<path d="M572.306 242.933C572.306 242.933 570.758 246.427 567.648 245.861C564.537 245.295 564.544 258.44 564.544 258.44C564.544 258.44 562.477 260.537 561.052 258.72C559.626 256.903 555.868 263.046 555.868 263.046L532.322 264.164C532.322 264.164 542.799 269.328 540.745 284.954C540.745 284.954 576.317 282.578 577.483 278.951C578.65 275.324 572.306 242.933 572.306 242.933Z" fill="white"/>
<path opacity="0.03" d="M572.306 242.933C572.306 242.933 570.758 246.427 567.648 245.861C564.537 245.295 564.544 258.44 564.544 258.44C564.544 258.44 562.477 260.537 561.052 258.72C559.626 256.903 555.868 263.046 555.868 263.046L532.322 264.164C532.322 264.164 542.799 269.328 540.745 284.954C540.745 284.954 576.317 282.578 577.483 278.951C578.65 275.324 572.306 242.933 572.306 242.933Z" fill="black"/>
<path d="M503.877 272.375L510.085 278.091L561.181 289.671L554.844 282.697L503.877 272.375Z" fill="white"/>
<path d="M591.842 208.614C590.993 210.012 588.563 217.168 586.535 223.415C584.844 228.621 583.431 233.199 583.431 233.199C583.431 233.199 580.133 256.358 578.449 260.544C576.764 264.73 577.678 281.054 577.678 281.054L571.399 321.37C571.399 321.37 568.555 342.16 564.162 354.578C559.827 366.8 555 372.531 554.851 372.712C556.795 369.875 567.388 314.011 567.388 314.011L570.887 243.555C570.887 243.555 571.399 236.86 571.917 231.137C572.436 225.414 582.932 217.601 582.932 217.601L593.053 202.08C594.071 203.547 593.39 206.105 591.842 208.614Z" fill="white"/>
<path d="M565.451 299.161C565.451 299.161 550.548 298.462 543.33 289.112C536.112 279.762 560.015 285.38 560.015 285.38L566.229 286.918L565.451 299.161Z" fill="#FFB0B1"/>
<path opacity="0.1" d="M635.046 406.172C634.249 409.218 634.12 412.421 634.671 415.53C618.414 416.774 601.023 412.036 601.023 412.036C597.783 415.25 589.25 419.988 589.25 419.988L584.598 357.793C581.624 349.407 580.457 305.471 580.457 305.471C580.457 305.471 580.723 303.172 581.105 299.727C581.105 299.643 581.105 299.552 581.138 299.468C582.298 289.846 584.598 271.781 585.725 269.342C587.28 265.988 580.943 257.064 580.943 257.064L583.827 230.543L584.177 227.342C590.254 224.414 594.913 215.064 594.913 215.064L598.49 208.306C602.377 205.616 602.578 231.983 602.578 231.983L598.69 294.241L611.571 290.405C611.571 290.405 637.243 398.22 635.046 406.172Z" fill="black"/>
<path d="M651.731 410.47C634.01 419.96 601.801 411.169 601.801 411.169C598.561 414.384 590.027 419.122 590.027 419.122L585.369 356.926C582.401 348.54 581.235 304.605 581.235 304.605C581.235 304.605 584.98 271.823 586.535 268.476C586.989 267.497 586.768 266.044 586.23 264.478C583.586 257.028 582.614 249.008 583.393 241.074L584.637 229.677L584.98 226.483C591.064 223.548 595.723 214.198 595.723 214.198L598.963 208.076L604.924 196.797L607.749 191.458L608.228 191.926L611.889 195.504C611.889 195.504 613.444 196.902 615.777 198.998C620.85 203.61 629.617 211.731 634.139 216.699C638.118 221.074 639.375 238.09 639.737 250.9C639.977 259.335 639.835 265.946 639.835 265.946C635.824 273.067 646.314 330.238 646.314 330.238C648.757 341.286 651.731 410.47 651.731 410.47Z" fill="white"/>
<path opacity="0.03" d="M617.714 214.058C617.714 214.058 605.552 239.027 606.965 248.517C608.377 258.007 612.394 268.748 610.457 271.257C609.791 272.207 608.931 272.979 607.943 273.511C606.955 274.043 605.866 274.322 604.762 274.325C602.818 274.464 597.634 278.371 597.634 278.79C597.634 279.209 592.846 279.209 588.563 281.166C584.28 283.123 577.956 284.234 577.956 284.234C577.956 284.234 565.645 283.815 564.499 285.073C563.352 286.33 562.172 293.857 564.628 299.86C567.084 305.863 569.812 310.342 571.872 311.16C573.933 311.977 587.008 307.253 597.615 306.135C608.222 305.017 619.735 295.953 619.735 295.953C619.735 295.953 632.416 291.061 634.638 282.836C636.861 274.611 631.923 229.404 631.923 229.404C631.923 229.404 628.191 208.334 617.714 214.058Z" fill="black"/>
<path opacity="0.03" d="M616.159 211.961C616.159 211.961 603.997 236.937 605.422 246.42C606.848 255.904 610.852 266.651 608.908 269.167C608.245 270.119 607.386 270.891 606.399 271.424C605.412 271.956 604.323 272.234 603.219 272.235C601.276 272.375 596.092 276.281 596.092 276.701C596.092 277.12 591.304 277.12 587.021 279.07C582.738 281.019 576.414 282.137 576.414 282.137C576.414 282.137 564.103 281.718 562.963 282.976C561.823 284.234 560.63 291.767 563.092 297.763C565.555 303.759 568.276 308.246 570.336 309.063C572.397 309.881 585.472 305.157 596.079 304.046C606.686 302.935 618.2 293.857 618.2 293.857C618.2 293.857 630.874 288.965 633.07 280.747C635.267 272.529 630.355 227.308 630.355 227.308C630.355 227.308 626.636 206.245 616.159 211.961Z" fill="black"/>
<path d="M617.332 212.8C617.332 212.8 605.17 237.776 606.595 247.259C608.021 256.742 612.025 267.49 610.088 269.999C609.424 270.953 608.565 271.727 607.576 272.261C606.588 272.794 605.498 273.073 604.392 273.074C602.448 273.213 597.265 277.12 597.265 277.532C597.265 277.944 592.483 277.951 588.194 279.908C583.904 281.865 577.587 282.976 577.587 282.976C577.587 282.976 565.276 282.557 564.129 283.815C562.982 285.073 561.803 292.606 564.259 298.602C566.715 304.598 569.442 309.084 571.503 309.902C573.563 310.719 586.639 305.995 597.245 304.877C607.852 303.759 619.366 294.695 619.366 294.695C619.366 294.695 632.046 289.804 634.269 281.578C636.491 273.353 631.586 228.146 631.586 228.146C631.586 228.146 627.802 207.111 617.332 212.8Z" fill="white"/>
<path opacity="0.1" d="M617.066 279.79C617.066 279.79 607.347 277.693 610.729 281.187C614.111 284.681 614.092 287.742 618.232 287.602C622.373 287.463 617.066 279.79 617.066 279.79Z" fill="black"/>
<path opacity="0.1" d="M633.491 354.969C633.491 354.969 629.098 358.177 637.502 365.57C645.906 372.964 633.491 354.969 633.491 354.969Z" fill="black"/>
<path opacity="0.1" d="M625.107 381.336C625.107 381.755 623.552 396.71 629.37 400.449C635.189 404.188 625.107 381.336 625.107 381.336Z" fill="black"/>
<path d="M532.724 264.129C528.033 264.303 517.899 265.848 523.154 276.421C527.799 285.778 535.607 279.524 540 274.779C538.928 270.355 536.324 266.543 532.724 264.129Z" fill="#FFB0B1"/>
<path opacity="0.1" d="M615.777 199.424C610.8 203.093 606.628 206.189 605.811 206.832C603.582 208.614 599.332 219.075 596.591 224.414C594.407 228.712 587.313 229.816 584.637 230.089L584.98 226.895C591.064 223.96 595.723 214.61 595.723 214.61L607.749 191.87L611.889 195.93C611.889 195.93 613.444 197.328 615.777 199.424Z" fill="black"/>
<path d="M615.777 199.005C610.8 202.674 606.628 205.77 605.811 206.42C603.582 208.195 599.332 218.656 596.591 223.995C594.407 228.293 587.313 229.397 584.637 229.67L584.98 226.476C591.064 223.541 595.723 214.191 595.723 214.191L607.749 191.451L611.889 195.497C611.889 195.497 613.444 196.881 615.777 199.005Z" fill="#DCE7FF"/>
<path d="M606.2 181.199C606.203 185.394 605.023 189.491 602.818 192.946C600.213 197.032 596.337 199.975 591.892 201.242C587.448 202.509 582.729 202.015 578.593 199.851C574.457 197.686 571.178 193.995 569.349 189.445C567.521 184.896 567.265 179.791 568.629 175.056C569.992 170.32 572.884 166.269 576.78 163.637C580.676 161.005 585.317 159.966 589.863 160.709C594.408 161.453 598.556 163.928 601.553 167.688C604.551 171.447 606.199 176.241 606.2 181.199Z" fill="#FFB0B1"/>
<path opacity="0.1" d="M639.737 250.907C637.106 249.161 634.963 246.678 633.537 243.723C632.455 241.417 631.735 238.754 629.889 237.119C628.224 235.652 626.001 235.295 623.928 234.638C617.111 232.465 611.397 225.756 611.183 218.097C611.079 214.491 612.122 210.892 611.649 207.321C611.38 205.3 610.635 203.387 609.485 201.765C608.914 200.99 608.288 200.263 607.613 199.592C606.705 198.67 605.753 197.775 604.924 196.797C604.401 196.191 603.945 195.523 603.563 194.805C603.255 194.218 603.005 193.597 602.818 192.953C601.522 188.676 602.701 183.603 601.276 179.277L601.198 179.04C600.66 177.502 599.565 175.965 598.042 175.846C596.52 175.727 595.217 177.09 593.766 177.698C590.727 178.97 587.449 176.803 584.915 174.595C582.382 172.387 579.524 169.864 576.304 170.353C574.172 170.682 572.488 172.247 570.524 173.058C570.081 173.243 569.624 173.385 569.157 173.484C570.819 169.015 573.871 165.31 577.791 163.004C581.71 160.699 586.251 159.938 590.634 160.852C595.017 161.765 598.969 164.297 601.809 168.011C604.65 171.726 606.202 176.391 606.2 181.206C606.202 182.66 606.061 184.11 605.779 185.532C605.811 185.63 605.844 185.72 605.883 185.818C606.634 187.915 607.483 190.067 608.228 191.926L611.889 195.504C611.889 195.504 613.444 196.902 615.777 198.998C620.85 203.61 629.617 211.731 634.139 216.699C638.118 221.088 639.362 238.097 639.737 250.907Z" fill="black"/>
<path d="M570.298 160.29C571.224 158.256 571.684 155.978 572.792 154.049C574.419 151.254 577.257 149.465 580.172 148.382C587.786 145.552 603.874 141.443 608.682 148.382C609.628 149.78 610.412 151.331 611.72 152.295C612.718 153.029 613.923 153.344 615.018 153.896C618.083 155.447 620.04 158.829 621.083 162.282C622.126 165.734 622.437 169.438 623.202 172.995C624.18 177.558 625.897 181.884 627.608 186.181C629.623 191.255 631.761 196.517 635.649 200.102C640.956 204.994 642.128 211.919 647.053 217.286C652.884 223.66 652.696 234.177 649.69 242.528C649.295 243.625 648.847 244.771 649.003 245.938C649.158 247.105 649.962 248.167 650.72 249.097L653.908 252.975C646.366 254.939 637.832 250.69 634.321 243.234C633.239 240.928 632.519 238.272 630.666 236.63C629.008 235.162 626.779 234.813 624.712 234.156C617.895 231.976 612.18 225.26 611.967 217.601C611.863 214.002 612.906 210.403 612.433 206.839C612.17 204.804 611.422 202.878 610.263 201.248C608.481 198.739 605.792 197.055 604.34 194.26C601.885 189.585 603.751 183.512 601.982 178.494C601.438 176.957 600.349 175.42 598.826 175.301C597.304 175.182 596.001 176.545 594.544 177.153C591.511 178.425 588.233 176.265 585.699 174.05C583.166 171.835 580.308 169.319 577.082 169.815C574.95 170.136 573.272 171.702 571.308 172.519C569.857 173.12 566.915 173.659 565.645 172.338C562.963 169.675 569.177 162.778 570.298 160.29Z" fill="#591D4B"/>
<path opacity="0.1" d="M636.122 240.928C635.033 238.622 634.321 235.966 632.467 234.331C630.809 232.863 628.58 232.507 626.506 231.85C619.697 229.677 613.982 222.961 613.761 215.302C613.658 211.703 614.701 208.097 614.234 204.533C613.963 202.511 613.216 200.598 612.064 198.977C610.276 196.468 607.587 194.784 606.142 191.989C603.686 187.321 605.552 181.248 603.777 176.223C603.239 174.693 602.144 173.155 600.628 173.03C599.112 172.904 597.796 174.281 596.345 174.888C593.312 176.16 590.027 173.994 587.5 171.786C584.973 169.577 582.103 167.055 578.883 167.544C576.751 167.872 575.066 169.438 573.11 170.248C571.658 170.849 568.71 171.394 567.44 170.074C564.771 167.278 570.984 160.395 572.099 157.921C573.025 155.88 573.485 153.609 574.6 151.68C574.658 151.576 574.723 151.471 574.788 151.366C573.954 152.111 573.235 152.993 572.656 153.98C571.548 155.908 571.088 158.173 570.162 160.22C569.041 162.694 562.827 169.598 565.503 172.373C566.799 173.7 569.714 173.155 571.166 172.554C573.11 171.737 574.807 170.171 576.939 169.85C580.179 169.354 583.03 171.877 585.557 174.085C588.084 176.293 591.388 178.459 594.407 177.188C595.859 176.58 597.129 175.21 598.684 175.336C600.239 175.462 601.276 176.992 601.839 178.529C603.608 183.547 601.742 189.62 604.198 194.295C605.649 197.041 608.338 198.76 610.12 201.283C611.28 202.913 612.027 204.839 612.291 206.874C612.764 210.438 611.72 214.037 611.824 217.636C612.038 225.323 617.753 232.011 624.569 234.191C626.623 234.848 628.865 235.197 630.524 236.665C632.383 238.307 633.115 240.963 634.178 243.269C637.69 250.725 646.223 254.974 653.765 253.01L652.262 251.179C645.724 251.284 639.109 247.273 636.122 240.928Z" fill="black"/>
<path opacity="0.1" d="M591.453 209.033C590.604 210.431 588.174 217.587 586.146 223.834C584.248 223.038 582.524 217.957 582.524 217.957L592.645 202.429C593.682 203.967 593.002 206.517 591.453 209.033Z" fill="black"/>
<path d="M591.842 208.614C590.993 210.012 588.563 217.168 586.535 223.415C584.637 222.625 582.913 217.538 582.913 217.538L593.034 202.017C594.071 203.547 593.39 206.105 591.842 208.614Z" fill="#DCE7FF"/>
<path d="M532.996 280.006L527.385 260.921C527.318 260.698 527.293 260.462 527.311 260.228C527.33 259.995 527.39 259.767 527.49 259.558C527.59 259.35 527.727 259.165 527.894 259.014C528.06 258.863 528.253 258.749 528.46 258.678C528.878 258.537 529.33 258.58 529.718 258.798C530.107 259.015 530.4 259.389 530.534 259.838L536.145 278.902L535.587 282.892L532.996 280.006Z" fill="#BE8B87"/>
<path opacity="0.1" d="M527.916 259.244C528.334 259.101 528.788 259.143 529.178 259.361C529.568 259.578 529.862 259.953 529.996 260.404L535.607 279.468L535.186 282.459L535.594 282.92L536.151 278.93L530.508 259.866C530.374 259.417 530.081 259.043 529.692 258.825C529.304 258.608 528.852 258.565 528.434 258.706C528.083 258.829 527.78 259.075 527.572 259.405C527.683 259.341 527.797 259.287 527.916 259.244Z" fill="white"/>
<path d="M532.996 280.006L536.145 278.93L535.685 282.2L535.587 282.92L534.667 281.886L532.996 280.006Z" fill="#EFC8C4"/>
<path d="M534.667 281.886C534.722 281.811 534.79 281.749 534.868 281.704C534.914 281.673 534.967 281.657 535.021 281.657C535.074 281.657 535.127 281.673 535.173 281.704C535.217 281.762 535.254 281.825 535.283 281.893C535.326 281.97 535.384 282.036 535.454 282.085C535.523 282.135 535.602 282.167 535.685 282.179L535.587 282.878L534.667 281.886Z" fill="#727A9C"/>
<path d="M527.352 267.7C527.352 267.7 538.607 267.63 535.957 272.794C533.307 277.959 529.166 278.58 529.166 278.58L527.352 267.7Z" fill="#FFB0B1"/>
<path d="M457.355 35.9337H456.869C437.535 35.9337 420.436 46.9682 410.6 63.2509C400.764 46.9682 383.665 35.9337 364.33 35.9337H363.844C349.334 36.0829 335.465 42.4021 325.251 53.5181C315.036 64.6342 309.302 79.6488 309.294 95.2991C309.294 114.733 317.186 142.309 332.575 165C361.894 208.237 410.6 246.064 410.6 246.064C410.6 246.064 459.305 208.244 488.618 165C504.013 142.309 511.899 114.733 511.899 95.2991C511.891 79.65 506.158 64.6364 495.945 53.5206C485.732 42.4047 471.864 36.0847 457.355 35.9337ZM450.403 168.327C448.201 168.317 446.053 167.591 444.241 166.241C442.429 164.892 441.038 162.983 440.25 160.765H428.69C427.929 160.76 427.188 160.499 426.572 160.018C425.955 159.537 425.493 158.86 425.25 158.082L421.699 146.544L410.464 188.886C410.245 189.701 409.787 190.418 409.158 190.928C408.53 191.438 407.765 191.715 406.978 191.716H406.751C405.93 191.673 405.148 191.328 404.534 190.738C403.921 190.148 403.514 189.349 403.382 188.474L391.803 113.364L383.341 157.809C383.147 158.653 382.696 159.403 382.061 159.939C381.426 160.475 380.642 160.766 379.836 160.765H363.553C363.065 160.787 362.577 160.703 362.12 160.517C361.663 160.331 361.246 160.047 360.893 159.682C360.541 159.318 360.26 158.88 360.068 158.395C359.876 157.911 359.778 157.389 359.778 156.862C359.778 156.335 359.876 155.814 360.068 155.329C360.26 154.845 360.541 154.407 360.893 154.042C361.246 153.678 361.663 153.394 362.12 153.208C362.577 153.021 363.065 152.937 363.553 152.959H376.985L388.972 93.2026C389.168 92.3191 389.644 91.5368 390.316 90.9893C390.988 90.4419 391.816 90.1633 392.658 90.2013C393.5 90.2393 394.303 90.5914 394.931 91.1975C395.558 91.8036 395.971 92.6259 396.099 93.5241L407.924 170.143L417.993 132.26C418.202 131.462 418.646 130.759 419.256 130.255C419.867 129.751 420.613 129.474 421.382 129.465H421.453C422.214 129.465 422.956 129.725 423.573 130.206C424.19 130.688 424.649 131.368 424.887 132.148L431.308 152.98H440.107C440.733 150.93 441.871 149.107 443.397 147.711C444.923 146.315 446.777 145.4 448.754 145.069C450.731 144.737 452.755 145.001 454.602 145.832C456.449 146.663 458.047 148.027 459.22 149.776C460.393 151.524 461.095 153.588 461.249 155.74C461.403 157.892 461.003 160.047 460.093 161.969C459.183 163.891 457.798 165.505 456.092 166.631C454.385 167.758 452.423 168.354 450.422 168.354L450.403 168.327Z" fill="#20A4B6"/>
</g>
<defs>
<linearGradient id="paint0_linear_2241_3370" x1="230.881" y1="541.5" x2="230.881" y2="111.484" gradientUnits="userSpaceOnUse">
<stop stop-color="#808080" stop-opacity="0.25"/>
<stop offset="0.54" stop-color="#808080" stop-opacity="0.12"/>
<stop offset="1" stop-color="#808080" stop-opacity="0.1"/>
</linearGradient>
<linearGradient id="paint1_linear_2241_3370" x1="578.889" y1="536.063" x2="578.889" y2="143.322" gradientUnits="userSpaceOnUse">
<stop stop-color="#808080" stop-opacity="0.25"/>
<stop offset="0.54" stop-color="#808080" stop-opacity="0.12"/>
<stop offset="1" stop-color="#808080" stop-opacity="0.1"/>
</linearGradient>
<clipPath id="clip0_2241_3370">
<rect width="716" height="547" fill="white"/>
</clipPath>
</defs>
</svg>
