<svg width="32" height="34" viewBox="0 0 32 34" fill="none" xmlns="http://www.w3.org/2000/svg">
<path d="M21.897 3.10814C20.8961 2.25263 20.2007 2.45394 19.1979 4.31869C18.5355 5.55171 17.4811 5.70047 16.8351 5.66279L16.8396 5.41618C17.5885 5.02776 18.1165 4.24001 18.1165 3.31144C18.1167 3.00048 18.0581 2.69253 17.9441 2.40519C17.8301 2.11785 17.663 1.85676 17.4522 1.63683C17.2414 1.4169 16.9912 1.24245 16.7157 1.12344C16.4403 1.00443 16.1451 0.943194 15.8469 0.943237C14.5944 0.943237 13.5732 2.00106 13.5732 3.31177C13.5732 4.24034 14.1016 5.02809 14.8524 5.41453L14.8546 5.66312C14.2109 5.7008 13.1542 5.55238 12.4918 4.31902C11.4931 2.45427 10.7956 2.25296 9.79721 3.10847C8.7922 3.96498 4.83046 8.90303 0 8.44982C0 8.44982 0.957472 10.7172 3.56746 10.2147C3.56746 10.2147 4.96231 11.7244 7.22588 10.6676C7.22588 10.6676 8.40204 11.774 10.2736 10.7678C10.2736 10.7678 11.6643 11.8762 13.1479 10.9185C13.1479 10.9185 13.9856 11.5512 14.9164 11.3876L14.976 17.0886C14.8708 17.0671 14.7861 17.0413 14.6749 17.0208C14.6708 17.0189 13.0531 16.6572 11.3423 16.1567C9.69579 15.7068 7.88829 14.9773 7.62206 14.5974C7.64488 14.5736 7.68196 14.5555 7.7295 14.5316C7.87593 14.451 8.12567 14.368 8.42296 14.3045C9.02736 14.1763 9.84665 14.1108 10.6701 14.0765C12.3064 14.015 12.6015 14.0893 12.6303 14.095C12.6325 14.0411 13.5773 14.2113 13.8375 13.2071C13.8274 13.1985 13.8562 13.1575 13.8398 13.1337C13.7862 12.4428 13.2766 12.4084 12.8595 12.3277C12.1828 12.2352 12.5356 12.2719 11.6237 12.2838C10.1256 12.4001 5.50966 12.0104 4.92808 14.5445C4.92808 14.6156 4.92396 14.6609 4.91572 14.7234C5.10969 16.9303 9.49041 17.8879 12.6639 18.5477C11.587 19.317 11.0111 20.3176 10.7819 21.6115C10.6726 22.9909 11.7229 24.304 14.1618 25.7714C12.3086 27.1403 11.0913 28.4248 11.1905 29.9769C11.3638 31.2423 12.4348 32.9338 14.5392 33.9993C14.5456 34.0016 14.5475 33.9969 14.5516 33.9993H14.5579C14.5579 33.9993 13.0848 31.6555 12.9856 30.3729C12.8886 29.6238 13.2972 28.5177 15.0882 27.1852L15.1398 31.8727H15.1481C15.1604 32.271 15.4555 32.5894 15.827 32.5894C16.1981 32.5894 16.4935 32.271 16.5058 31.8727H16.5122L16.5718 27.3079C18.2224 28.5842 18.5961 29.645 18.501 30.3726C18.4021 31.6552 16.9309 33.9989 16.9309 33.9989H16.935C16.935 33.9989 16.9394 34.0012 16.9496 33.9989C19.0521 32.9335 20.1253 31.242 20.2964 29.9765C20.3953 28.4248 19.1783 27.1399 17.3274 25.771C19.764 24.3036 20.8165 22.9906 20.7072 21.6111C20.478 20.3176 19.9025 19.317 18.8233 18.5474C21.999 17.8876 26.3775 16.9299 26.5715 14.723C26.563 14.6639 26.5589 14.6041 26.5591 14.5442C25.9791 12.0101 21.3613 12.3998 19.8632 12.2834C18.9513 12.2715 19.3041 12.2352 18.6274 12.3274C18.2107 12.4081 17.701 12.4424 17.6471 13.1333C17.6307 13.1571 17.6617 13.1978 17.6516 13.2067C17.9115 14.2107 18.8566 14.0404 18.8588 14.0946C18.8854 14.089 19.1808 14.015 20.8191 14.0761C21.6403 14.1105 22.4595 14.1763 23.0639 14.3042C23.3631 14.3677 23.6088 14.4503 23.7574 14.5313C23.8049 14.5551 23.8439 14.5733 23.8671 14.5971C23.6008 14.9769 21.7933 15.7065 20.1468 16.1564C18.4341 16.6569 16.8164 17.0182 16.8123 17.0205C16.7711 17.0291 16.7382 17.0377 16.697 17.0453L16.7673 11.3863C17.7039 11.5575 18.5479 10.9182 18.5479 10.9182C20.0274 11.8758 21.4222 10.7674 21.4222 10.7674C23.2934 11.7737 24.4677 10.6673 24.4677 10.6673C26.7312 11.7241 28.1261 10.2144 28.1261 10.2144C30.7345 10.7172 31.6939 8.44982 31.6939 8.44982C26.8615 8.90303 22.8998 3.96498 21.897 3.10814ZM13.7133 23.3265C13.1089 22.9347 12.8262 22.4055 12.8817 22.0482C12.9146 21.551 12.7495 20.3652 15.0048 19.5021L15.0565 24.2111C14.6213 23.9248 14.1713 23.6299 13.7133 23.3265ZM18.6037 22.0482C18.6594 22.4055 18.3764 22.9351 17.772 23.3265C17.3758 23.5913 16.9879 23.8428 16.6082 24.0924L16.6662 19.5752C18.7232 20.434 18.5707 21.5662 18.6037 22.0482Z" fill="url(#paint0_linear_2254_6057)"/>
<defs>
<linearGradient id="paint0_linear_2254_6057" x1="-430.997" y1="-130.038" x2="2916.88" y2="1293.47" gradientUnits="userSpaceOnUse">
<stop stop-color="#08C7D6"/>
<stop offset="0.00702708" stop-color="#0AC4D3"/>
<stop offset="0.0166287" stop-color="#0CC1D0"/>
<stop offset="0.0280137" stop-color="#0FBCCC"/>
<stop offset="0.137456" stop-color="#21A2B4"/>
<stop offset="0.151875" stop-color="#2F8DA0"/>
<stop offset="0.218037" stop-color="#032156"/>
<stop offset="0.25" stop-color="#49677C"/>
<stop offset="0.416667" stop-color="#033062"/>
<stop offset="0.505208" stop-color="#02023E"/>
<stop offset="0.594959" stop-color="#02023E"/>
</linearGradient>
</defs>
</svg>

