<svg width="131" height="24" viewBox="0 0 131 24" fill="none" xmlns="http://www.w3.org/2000/svg">
<mask id="path-1-inside-1_2257_2517" fill="white">
<path d="M10.7947 18.2818H12.6379V0.707833H10.7947V8.57892H2.2223V0.707833H0.34436V18.2818H2.2223V10.3381H10.7947V18.2818ZM20.8451 16.8671C18.463 16.8671 17.6457 15.4344 17.6457 12.714H25.6791L25.7834 11.2812C25.7834 7.10989 24.1315 5.33255 20.8973 5.33255C17.8022 5.33255 15.8025 7.18244 15.8025 12.0067C15.8025 16.3231 17.0023 18.5357 20.6191 18.5357C22.6014 18.5357 25.3661 18.1367 25.3661 18.1367L25.3139 16.6314C25.3139 16.6314 22.6709 16.8671 20.8451 16.8671ZM17.6283 11.1905C17.6457 8.12552 18.8281 6.92853 20.8973 6.92853C23.0361 6.92853 23.9577 8.05297 23.9577 11.1905H17.6283ZM30.4609 18.2818V7.98043C30.4609 7.98043 32.1301 7.03735 33.8864 7.03735C36.1468 7.03735 36.512 8.27061 36.512 11.6258V18.2818H38.3204V11.5714C38.3204 7.05549 37.5727 5.33255 34.1994 5.33255C32.4084 5.33255 30.4261 6.47513 30.4261 6.47513V5.58646H28.6351V18.2818H30.4609ZM51.0486 0.0549316H49.2576V5.659C48.8925 5.58646 47.3101 5.33255 46.2494 5.33255C42.5631 5.33255 41.1721 7.5633 41.1721 12.0429C41.1721 17.52 43.1717 18.5357 45.5539 18.5357C47.3797 18.5357 49.2576 17.4112 49.2576 17.4112V18.2818H51.0486V0.0549316ZM45.7626 16.8309C44.3367 16.8309 43.05 16.1417 43.05 12.0429C43.05 8.74215 43.7977 6.98294 46.3538 6.98294C47.3449 6.98294 48.8577 7.21871 49.2576 7.29126V15.8878C49.2576 15.8878 47.5014 16.8309 45.7626 16.8309ZM53.4308 5.58646L56.8911 18.2818H58.6995L57.1171 23.9221H58.9429L64.0029 5.58646H62.1771L59.1168 16.6314H58.2995L55.2566 5.58646H53.4308ZM77.0963 18.2818H78.9568V0.707833H77.0963V8.57892H68.5238V0.707833H66.6633V18.2818H68.5238V10.3381H77.0963V18.2818ZM87.1467 16.8671C84.7645 16.8671 83.9646 15.4344 83.9646 12.714H91.998L92.1024 11.2812C92.1024 7.10989 90.4331 5.33255 87.1989 5.33255C84.1037 5.33255 82.1215 7.18244 82.1215 12.0067C82.1215 16.3231 83.3039 18.5357 86.938 18.5357C88.9029 18.5357 91.685 18.1367 91.685 18.1367L91.6329 16.6314C91.6329 16.6314 88.9725 16.8671 87.1467 16.8671ZM83.9473 11.1905C83.9646 8.12552 85.1297 6.92853 87.1989 6.92853C89.3376 6.92853 90.2766 8.05297 90.2766 11.1905H83.9473ZM103.544 9.41319C103.544 6.65649 102.361 5.33255 99.6141 5.33255C97.5275 5.33255 94.8497 5.89477 94.8497 5.89477L94.9193 7.34566C94.9193 7.34566 97.8231 7.00108 99.5272 7.00108C100.988 7.00108 101.718 7.63584 101.718 9.41319V10.5195L97.8927 10.9003C95.3887 11.1543 94.1716 12.2062 94.1716 14.6545C94.1716 17.2117 95.3887 18.5357 97.5971 18.5357C99.788 18.5357 101.979 17.52 101.979 17.52C102.709 18.2818 103.579 18.5357 104.883 18.5357L104.952 17.0304C104.17 16.9397 103.579 16.6495 103.544 15.9241V9.41319ZM101.718 11.9522V16.1417C101.718 16.1417 99.6837 16.9397 97.8927 16.9397C96.6407 16.9397 96.0321 16.0692 96.0321 14.6001C96.0321 13.2036 96.6233 12.4601 98.1013 12.315L101.718 11.9522ZM107.282 18.2818H109.108V0.0549316H107.282V18.2818ZM119.072 7.23685V5.58646H115.194V1.70532H113.403V5.58646H111.664V7.23685H113.403V13.911C113.403 17.5745 114.255 18.5538 116.759 18.5538C117.611 18.5538 119.245 18.2818 119.245 18.2818L119.124 16.7039C119.124 16.7039 117.628 16.8671 116.95 16.8671C115.368 16.8671 115.194 16.0692 115.194 13.3125V7.23685H119.072ZM123.14 18.2818V7.79907C123.14 7.79907 124.844 7.03735 126.566 7.03735C128.809 7.03735 129.174 8.27061 129.174 11.6258V18.2818H131V11.5714C131 7.05549 130.217 5.33255 126.879 5.33255C125.088 5.33255 123.14 6.29377 123.14 6.29377V0.0549316H121.315V18.2818H123.14Z"/>
</mask>
<path d="M10.7947 18.2818H12.6379V0.707833H10.7947V8.57892H2.2223V0.707833H0.34436V18.2818H2.2223V10.3381H10.7947V18.2818ZM20.8451 16.8671C18.463 16.8671 17.6457 15.4344 17.6457 12.714H25.6791L25.7834 11.2812C25.7834 7.10989 24.1315 5.33255 20.8973 5.33255C17.8022 5.33255 15.8025 7.18244 15.8025 12.0067C15.8025 16.3231 17.0023 18.5357 20.6191 18.5357C22.6014 18.5357 25.3661 18.1367 25.3661 18.1367L25.3139 16.6314C25.3139 16.6314 22.6709 16.8671 20.8451 16.8671ZM17.6283 11.1905C17.6457 8.12552 18.8281 6.92853 20.8973 6.92853C23.0361 6.92853 23.9577 8.05297 23.9577 11.1905H17.6283ZM30.4609 18.2818V7.98043C30.4609 7.98043 32.1301 7.03735 33.8864 7.03735C36.1468 7.03735 36.512 8.27061 36.512 11.6258V18.2818H38.3204V11.5714C38.3204 7.05549 37.5727 5.33255 34.1994 5.33255C32.4084 5.33255 30.4261 6.47513 30.4261 6.47513V5.58646H28.6351V18.2818H30.4609ZM51.0486 0.0549316H49.2576V5.659C48.8925 5.58646 47.3101 5.33255 46.2494 5.33255C42.5631 5.33255 41.1721 7.5633 41.1721 12.0429C41.1721 17.52 43.1717 18.5357 45.5539 18.5357C47.3797 18.5357 49.2576 17.4112 49.2576 17.4112V18.2818H51.0486V0.0549316ZM45.7626 16.8309C44.3367 16.8309 43.05 16.1417 43.05 12.0429C43.05 8.74215 43.7977 6.98294 46.3538 6.98294C47.3449 6.98294 48.8577 7.21871 49.2576 7.29126V15.8878C49.2576 15.8878 47.5014 16.8309 45.7626 16.8309ZM53.4308 5.58646L56.8911 18.2818H58.6995L57.1171 23.9221H58.9429L64.0029 5.58646H62.1771L59.1168 16.6314H58.2995L55.2566 5.58646H53.4308ZM77.0963 18.2818H78.9568V0.707833H77.0963V8.57892H68.5238V0.707833H66.6633V18.2818H68.5238V10.3381H77.0963V18.2818ZM87.1467 16.8671C84.7645 16.8671 83.9646 15.4344 83.9646 12.714H91.998L92.1024 11.2812C92.1024 7.10989 90.4331 5.33255 87.1989 5.33255C84.1037 5.33255 82.1215 7.18244 82.1215 12.0067C82.1215 16.3231 83.3039 18.5357 86.938 18.5357C88.9029 18.5357 91.685 18.1367 91.685 18.1367L91.6329 16.6314C91.6329 16.6314 88.9725 16.8671 87.1467 16.8671ZM83.9473 11.1905C83.9646 8.12552 85.1297 6.92853 87.1989 6.92853C89.3376 6.92853 90.2766 8.05297 90.2766 11.1905H83.9473ZM103.544 9.41319C103.544 6.65649 102.361 5.33255 99.6141 5.33255C97.5275 5.33255 94.8497 5.89477 94.8497 5.89477L94.9193 7.34566C94.9193 7.34566 97.8231 7.00108 99.5272 7.00108C100.988 7.00108 101.718 7.63584 101.718 9.41319V10.5195L97.8927 10.9003C95.3887 11.1543 94.1716 12.2062 94.1716 14.6545C94.1716 17.2117 95.3887 18.5357 97.5971 18.5357C99.788 18.5357 101.979 17.52 101.979 17.52C102.709 18.2818 103.579 18.5357 104.883 18.5357L104.952 17.0304C104.17 16.9397 103.579 16.6495 103.544 15.9241V9.41319ZM101.718 11.9522V16.1417C101.718 16.1417 99.6837 16.9397 97.8927 16.9397C96.6407 16.9397 96.0321 16.0692 96.0321 14.6001C96.0321 13.2036 96.6233 12.4601 98.1013 12.315L101.718 11.9522ZM107.282 18.2818H109.108V0.0549316H107.282V18.2818ZM119.072 7.23685V5.58646H115.194V1.70532H113.403V5.58646H111.664V7.23685H113.403V13.911C113.403 17.5745 114.255 18.5538 116.759 18.5538C117.611 18.5538 119.245 18.2818 119.245 18.2818L119.124 16.7039C119.124 16.7039 117.628 16.8671 116.95 16.8671C115.368 16.8671 115.194 16.0692 115.194 13.3125V7.23685H119.072ZM123.14 18.2818V7.79907C123.14 7.79907 124.844 7.03735 126.566 7.03735C128.809 7.03735 129.174 8.27061 129.174 11.6258V18.2818H131V11.5714C131 7.05549 130.217 5.33255 126.879 5.33255C125.088 5.33255 123.14 6.29377 123.14 6.29377V0.0549316H121.315V18.2818H123.14Z" fill="#0C203C" stroke="black" stroke-width="2" mask="url(#path-1-inside-1_2257_2517)"/>
</svg>
