<svg width="378" height="207" viewBox="0 0 378 207" fill="none" xmlns="http://www.w3.org/2000/svg">
<g clip-path="url(#clip0_2379_2501)">
<path d="M375.558 206H165.442C164.795 205.999 164.174 205.734 163.716 205.262C163.258 204.791 163.001 204.152 163 203.485V2.51525C163.001 1.84843 163.258 1.20917 163.716 0.737662C164.174 0.26615 164.795 0.000872718 165.442 0H375.558C376.205 0.000872718 376.826 0.26615 377.284 0.737662C377.742 1.20917 377.999 1.84843 378 2.51525V203.484C377.999 204.151 377.742 204.79 377.284 205.262C376.826 205.734 376.205 205.999 375.558 206ZM165.442 1.00412C165.054 1.00499 164.682 1.16413 164.408 1.44672C164.134 1.7293 163.979 2.11232 163.978 2.51195V203.484C163.979 203.884 164.134 204.267 164.408 204.55C164.682 204.832 165.054 204.991 165.442 204.992H375.558C375.946 204.991 376.318 204.832 376.592 204.55C376.867 204.267 377.021 203.884 377.022 203.484V2.51525C377.021 2.11562 376.867 1.7326 376.592 1.45002C376.318 1.16743 375.946 1.00829 375.558 1.00742L165.442 1.00412Z" fill="#E6E6E6"/>
<path d="M264.67 52C264.227 52 263.803 52.2107 263.489 52.5858C263.176 52.9609 263 53.4696 263 54C263 54.5304 263.176 55.0391 263.489 55.4142C263.803 55.7893 264.227 56 264.67 56H356.33C356.773 56 357.197 55.7893 357.511 55.4142C357.824 55.0391 358 54.5304 358 54C358 53.4696 357.824 52.9609 357.511 52.5858C357.197 52.2107 356.773 52 356.33 52H264.67Z" fill="#E6E6E6"/>
<path d="M264.666 63C264.224 63 263.8 63.158 263.488 63.4393C263.176 63.7206 263 64.1022 263 64.5C263 64.8978 263.176 65.2794 263.488 65.5607C263.8 65.842 264.224 66 264.666 66H311.334C311.776 66 312.2 65.842 312.512 65.5607C312.824 65.2794 313 64.8978 313 64.5C313 64.1022 312.824 63.7206 312.512 63.4393C312.2 63.158 311.776 63 311.334 63H264.666Z" fill="#E6E6E6"/>
<path d="M184.669 112C184.226 112 183.802 112.211 183.489 112.586C183.176 112.961 183 113.47 183 114C183 114.53 183.176 115.039 183.489 115.414C183.802 115.789 184.226 116 184.669 116H356.332C356.774 116 357.198 115.789 357.511 115.414C357.824 115.039 358 114.53 358 114C358 113.47 357.824 112.961 357.511 112.586C357.198 112.211 356.774 112 356.332 112H184.669Z" fill="#E6E6E6"/>
<path d="M184.666 122C184.224 122 183.8 122.211 183.488 122.586C183.176 122.961 183 123.47 183 124C183 124.53 183.176 125.039 183.488 125.414C183.8 125.789 184.224 126 184.666 126H311.334C311.776 126 312.2 125.789 312.512 125.414C312.824 125.039 313 124.53 313 124C313 123.47 312.824 122.961 312.512 122.586C312.2 122.211 311.776 122 311.334 122H184.666Z" fill="#E6E6E6"/>
<path d="M184.669 132C184.226 132 183.802 132.211 183.489 132.586C183.176 132.961 183 133.47 183 134C183 134.53 183.176 135.039 183.489 135.414C183.802 135.789 184.226 136 184.669 136H356.332C356.774 136 357.198 135.789 357.511 135.414C357.824 135.039 358 134.53 358 134C358 133.47 357.824 132.961 357.511 132.586C357.198 132.211 356.774 132 356.332 132H184.669Z" fill="#E6E6E6"/>
<path d="M184.666 143C184.224 143 183.8 143.158 183.488 143.439C183.176 143.721 183 144.102 183 144.5C183 144.898 183.176 145.279 183.488 145.561C183.8 145.842 184.224 146 184.666 146H311.334C311.776 146 312.2 145.842 312.512 145.561C312.824 145.279 313 144.898 313 144.5C313 144.102 312.824 143.721 312.512 143.439C312.2 143.158 311.776 143 311.334 143H184.666Z" fill="#E6E6E6"/>
<path d="M241.554 88H109.446C108.798 87.9993 108.176 87.7366 107.717 87.2698C107.259 86.8029 107.001 86.1699 107 85.5097V26.4903C107.001 25.8301 107.259 25.1971 107.717 24.7302C108.176 24.2634 108.798 24.0007 109.446 24H241.554C242.202 24.0007 242.824 24.2634 243.283 24.7302C243.741 25.1971 243.999 25.8301 244 26.4903V85.5097C243.999 86.1699 243.741 86.8029 243.283 87.2698C242.824 87.7366 242.202 87.9993 241.554 88Z" fill="#20A4B6"/>
<path d="M354.552 183H304.448C303.799 182.999 303.177 182.72 302.718 182.222C302.259 181.725 302.001 181.051 302 180.348V171.652C302.001 170.949 302.259 170.275 302.718 169.778C303.177 169.28 303.799 169.001 304.448 169H354.552C355.201 169.001 355.823 169.28 356.282 169.778C356.741 170.275 356.999 170.949 357 171.652V180.348C356.999 181.051 356.741 181.725 356.282 182.222C355.823 182.72 355.201 182.999 354.552 183Z" fill="#20A4B6"/>
<path d="M58.0803 100.994C55.9851 99.3551 55.3701 96.293 56.7069 94.1543C56.8397 93.9449 56.9899 93.7481 57.1557 93.5664L57.2896 50L63.471 51.209L63.7426 94.0577C65.1509 95.7692 65.4352 98.2634 64.2946 100.088C62.9579 102.227 60.1756 102.632 58.0803 100.994Z" fill="#FFB8B8"/>
<path d="M91.0009 200H97.7764L101 174H91L91.0009 200Z" fill="#FFB8B8"/>
<path d="M89 197.001L102.437 197C104.708 197 106.886 197.918 108.492 199.553C110.098 201.187 111 203.404 111 205.716V205.999L89.0004 206L89 197.001Z" fill="#2F2E41"/>
<path d="M30.0009 200H36.7769L40 174H30L30.0009 200Z" fill="#FFB8B8"/>
<path d="M28 197.001L41.4366 197C43.7076 197 45.886 197.918 47.4918 199.553C49.0976 201.187 49.9998 203.404 50 205.716V205.999L28.0004 206L28 197.001Z" fill="#2F2E41"/>
<path d="M90.3994 192L89.8475 188.626C89.2806 188.423 88.7989 188.029 88.4826 187.509C87.89 186.555 87.7956 185.212 88.2018 183.517L83.759 145.281L60.564 120.756L45.684 157.332L39.7935 186.276V190.457L28.0327 191.996L28.5679 188.055C28.118 187.858 27.7431 187.518 27.5 187.085C26.8243 185.939 26.8335 184.162 27.5274 181.805L27.5575 181.703L27.5191 181.351C27.4921 181.104 27.6689 157.463 34.5653 145.75L41.472 110.187C41.2927 109.686 40.4072 106.77 42.0311 101.843C43.6339 96.9799 48.1163 89.1461 60.3691 79.4412L60.4112 79.408L60.4634 79.3968C60.5991 79.3682 74.1132 76.6302 81.1024 85.9444L81.1496 86.0073V86.0867C81.1496 86.6625 81.1375 100.063 80.0978 103.037L96.6825 134.114C97.0054 134.462 99.9048 137.874 98.8749 146.846L101.554 177.426C101.861 178.022 104.634 183.639 101.577 185.863L102.125 189.724L90.3994 192Z" fill="#2F2E41"/>
<path d="M62.8089 62.9999C59.7032 62.9999 55.5761 61.8835 53.0497 56.7376L53 56.6365L59.224 43.2181C60.0303 41.4797 61.4736 40.1313 63.2451 39.4613C65.0165 38.7914 66.9754 38.8531 68.7027 39.6334C70.4299 40.4137 71.7883 41.8505 72.4872 43.6364C73.1861 45.4223 73.17 47.4154 72.4424 49.1894L67.0614 62.3091L66.9677 62.3444C65.6238 62.7834 64.2204 63.0046 62.8089 62.9999Z" fill="#20A4B6"/>
<path d="M80.625 90L61 80.5337L63.6976 46.9159L68.6156 40.776L69.5683 40.5677C73.9467 39.6101 78.4963 39.8675 82.7444 41.3131L82.8377 41.3449L90.9159 58.9482C90.9666 59.0361 96.7923 69.5424 88.7389 75.0817L80.625 90Z" fill="#20A4B6"/>
<path d="M107.353 79.4109C107.118 79.5118 106.892 79.6318 106.675 79.7695L85.9574 69.983L85.4259 64.2939L77.0069 64L77 74.1659C76.9994 74.9871 77.2569 75.7864 77.7336 76.4437C78.2104 77.101 78.8808 77.5809 79.6441 77.8113L104.523 85.3197C104.778 86.2959 105.315 87.1686 106.063 87.8218C106.811 88.475 107.733 88.8777 108.708 88.9763C109.682 89.0749 110.663 88.8647 111.519 88.3738C112.375 87.8829 113.066 87.1344 113.5 86.228C113.934 85.3216 114.091 84.3001 113.949 83.2995C113.808 82.2989 113.374 81.3666 112.707 80.6266C112.039 79.8865 111.17 79.3738 110.213 79.1566C109.257 78.9395 108.259 79.0281 107.353 79.4109Z" fill="#FFB8B8"/>
<path d="M81.5788 67C79.2434 67 76.6078 66.1621 74.078 63.5376L74 63.4568L75.7094 48.5599C75.9308 46.6299 76.8715 44.8664 78.3302 43.6468C79.789 42.4272 81.6498 41.8483 83.5147 42.0341C85.3796 42.2198 87.1003 43.1553 88.3088 44.6406C89.5172 46.1258 90.1174 48.0427 89.9809 49.9812L88.9719 64.3167L88.8946 64.381C88.8451 64.4222 85.6742 67 81.5788 67Z" fill="#20A4B6"/>
<path d="M88.2818 28.7353C91.7672 22.188 89.4239 13.979 83.0481 10.3999C76.6722 6.82082 68.678 9.22704 65.1927 15.7743C61.7073 22.3216 64.0505 30.5307 70.4264 34.1098C76.8023 37.6889 84.7964 35.2826 88.2818 28.7353Z" fill="#FFB8B8"/>
<path d="M89.8819 15.111C89.2315 11.1666 86.1948 7.89683 82.5772 6.55896C78.9594 5.22109 74.8799 5.65619 71.3373 7.19684C70.7474 7.45457 70.1705 7.74376 69.6091 8.06326C68.3142 5.48979 65.1396 3.99723 62.2361 4.15832C58.7283 4.35293 55.5604 6.28817 52.5139 8.11207C49.4673 9.93597 46.1982 11.7507 42.6861 11.6657C36.3395 11.5123 31.6178 5.37715 25.5149 3.55386C22.7981 2.74223 19.9073 2.82433 17.2369 3.78896C14.5666 4.7536 12.2467 6.55379 10.5938 8.94391C8.94084 11.334 8.03542 14.1977 8.00102 17.1442C7.96662 20.0906 8.80492 22.9764 10.4015 25.4078C13.0055 20.5421 19.1207 18.8987 24.4268 19.5611C29.7327 20.2235 34.6779 22.6486 39.876 23.9403C45.0744 25.2321 51.0948 25.1766 55.1212 21.5134C57.4053 19.4355 58.7463 16.4656 60.7347 14.0801C62.0797 12.4666 63.9945 11.1042 65.9509 10.7835C64.0239 12.5929 62.5527 14.8683 61.6666 17.4096C60.0978 22.0569 60.9365 27.637 64.191 31.2091C67.6798 35.0387 73.1557 36.0593 78.2211 35.9974L78.3271 35.8851C76.7762 33.4646 75.5522 30.1082 77.2597 27.8052C78.9454 25.5318 82.2699 25.8668 84.8513 24.8608C88.4468 23.4597 90.5322 19.0554 89.8819 15.111Z" fill="#2F2E41"/>
<path d="M125.542 207H0.458182C0.336664 207 0.220124 206.947 0.134198 206.854C0.0482722 206.76 0 206.633 0 206.5C0 206.367 0.0482722 206.24 0.134198 206.146C0.220124 206.053 0.336664 206 0.458182 206H125.542C125.663 206 125.78 206.053 125.866 206.146C125.952 206.24 126 206.367 126 206.5C126 206.633 125.952 206.76 125.866 206.854C125.78 206.947 125.663 207 125.542 207Z" fill="#CCCCCC"/>
<path d="M170.036 45C169.463 45.0017 168.999 45.6745 169 46.503C169.001 47.3291 169.464 47.9984 170.036 48H218.964C219.537 47.9983 220.001 47.3255 220 46.497C219.999 45.6709 219.536 45.0016 218.964 45H170.036Z" fill="white"/>
<path d="M170.036 55C169.463 55.0017 168.999 55.6745 169 56.503C169.001 57.3291 169.464 57.9984 170.036 58H218.964C219.537 57.9983 220.001 57.3255 220 56.497C219.999 55.6709 219.536 55.0016 218.964 55H170.036Z" fill="white"/>
<path d="M170.03 64C169.46 64.0022 168.999 64.8994 169 66.004C169.001 67.1054 169.462 67.9978 170.03 68H190.97C191.54 67.9978 192.001 67.1006 192 65.996C191.999 64.8946 191.538 64.0022 190.97 64H170.03Z" fill="white"/>
<path d="M144.5 70C151.956 70 158 63.732 158 56C158 48.268 151.956 42 144.5 42C137.044 42 131 48.268 131 56C131 63.732 137.044 70 144.5 70Z" fill="white"/>
<path d="M375.558 206H165.442C164.795 205.999 164.174 205.734 163.716 205.262C163.258 204.791 163.001 204.152 163 203.485V2.51525C163.001 1.84843 163.258 1.20917 163.716 0.737662C164.174 0.26615 164.795 0.000872718 165.442 0H375.558C376.205 0.000872718 376.826 0.26615 377.284 0.737662C377.742 1.20917 377.999 1.84843 378 2.51525V203.484C377.999 204.151 377.742 204.79 377.284 205.262C376.826 205.734 376.205 205.999 375.558 206ZM165.442 1.00412C165.054 1.00499 164.682 1.16413 164.408 1.44672C164.134 1.7293 163.979 2.11232 163.978 2.51195V203.484C163.979 203.884 164.134 204.267 164.408 204.55C164.682 204.832 165.054 204.991 165.442 204.992H375.558C375.946 204.991 376.318 204.832 376.592 204.55C376.867 204.267 377.021 203.884 377.022 203.484V2.51525C377.021 2.11562 376.867 1.7326 376.592 1.45002C376.318 1.16743 375.946 1.00829 375.558 1.00742L165.442 1.00412Z" fill="#E6E6E6"/>
<path d="M264.67 52C264.227 52 263.803 52.2107 263.489 52.5858C263.176 52.9609 263 53.4696 263 54C263 54.5304 263.176 55.0391 263.489 55.4142C263.803 55.7893 264.227 56 264.67 56H356.33C356.773 56 357.197 55.7893 357.511 55.4142C357.824 55.0391 358 54.5304 358 54C358 53.4696 357.824 52.9609 357.511 52.5858C357.197 52.2107 356.773 52 356.33 52H264.67Z" fill="#E6E6E6"/>
<path d="M264.666 63C264.224 63 263.8 63.158 263.488 63.4393C263.176 63.7206 263 64.1022 263 64.5C263 64.8978 263.176 65.2794 263.488 65.5607C263.8 65.842 264.224 66 264.666 66H311.334C311.776 66 312.2 65.842 312.512 65.5607C312.824 65.2794 313 64.8978 313 64.5C313 64.1022 312.824 63.7206 312.512 63.4393C312.2 63.158 311.776 63 311.334 63H264.666Z" fill="#E6E6E6"/>
<path d="M184.669 112C184.226 112 183.802 112.211 183.489 112.586C183.176 112.961 183 113.47 183 114C183 114.53 183.176 115.039 183.489 115.414C183.802 115.789 184.226 116 184.669 116H356.332C356.774 116 357.198 115.789 357.511 115.414C357.824 115.039 358 114.53 358 114C358 113.47 357.824 112.961 357.511 112.586C357.198 112.211 356.774 112 356.332 112H184.669Z" fill="#E6E6E6"/>
<path d="M184.666 122C184.224 122 183.8 122.211 183.488 122.586C183.176 122.961 183 123.47 183 124C183 124.53 183.176 125.039 183.488 125.414C183.8 125.789 184.224 126 184.666 126H311.334C311.776 126 312.2 125.789 312.512 125.414C312.824 125.039 313 124.53 313 124C313 123.47 312.824 122.961 312.512 122.586C312.2 122.211 311.776 122 311.334 122H184.666Z" fill="#E6E6E6"/>
<path d="M184.669 132C184.226 132 183.802 132.211 183.489 132.586C183.176 132.961 183 133.47 183 134C183 134.53 183.176 135.039 183.489 135.414C183.802 135.789 184.226 136 184.669 136H356.332C356.774 136 357.198 135.789 357.511 135.414C357.824 135.039 358 134.53 358 134C358 133.47 357.824 132.961 357.511 132.586C357.198 132.211 356.774 132 356.332 132H184.669Z" fill="#E6E6E6"/>
<path d="M184.666 143C184.224 143 183.8 143.158 183.488 143.439C183.176 143.721 183 144.102 183 144.5C183 144.898 183.176 145.279 183.488 145.561C183.8 145.842 184.224 146 184.666 146H311.334C311.776 146 312.2 145.842 312.512 145.561C312.824 145.279 313 144.898 313 144.5C313 144.102 312.824 143.721 312.512 143.439C312.2 143.158 311.776 143 311.334 143H184.666Z" fill="#E6E6E6"/>
<path d="M241.554 88H109.446C108.798 87.9993 108.176 87.7366 107.717 87.2698C107.259 86.8029 107.001 86.1699 107 85.5097V26.4903C107.001 25.8301 107.259 25.1971 107.717 24.7302C108.176 24.2634 108.798 24.0007 109.446 24H241.554C242.202 24.0007 242.824 24.2634 243.283 24.7302C243.741 25.1971 243.999 25.8301 244 26.4903V85.5097C243.999 86.1699 243.741 86.8029 243.283 87.2698C242.824 87.7366 242.202 87.9993 241.554 88Z" fill="#20A4B6"/>
<path d="M354.552 183H304.448C303.799 182.999 303.177 182.72 302.718 182.222C302.259 181.725 302.001 181.051 302 180.348V171.652C302.001 170.949 302.259 170.275 302.718 169.778C303.177 169.28 303.799 169.001 304.448 169H354.552C355.201 169.001 355.823 169.28 356.282 169.778C356.741 170.275 356.999 170.949 357 171.652V180.348C356.999 181.051 356.741 181.725 356.282 182.222C355.823 182.72 355.201 182.999 354.552 183Z" fill="#20A4B6"/>
<path d="M58.0803 100.994C55.9851 99.3551 55.3701 96.293 56.7069 94.1543C56.8397 93.9449 56.9899 93.7481 57.1557 93.5664L57.2896 50L63.471 51.209L63.7426 94.0577C65.1509 95.7692 65.4352 98.2634 64.2946 100.088C62.9579 102.227 60.1756 102.632 58.0803 100.994Z" fill="#FFB8B8"/>
<path d="M91.0009 200H97.7764L101 174H91L91.0009 200Z" fill="#FFB8B8"/>
<path d="M89 197.001L102.437 197C104.708 197 106.886 197.918 108.492 199.553C110.098 201.187 111 203.404 111 205.716V205.999L89.0004 206L89 197.001Z" fill="#2F2E41"/>
<path d="M30.0009 200H36.7769L40 174H30L30.0009 200Z" fill="#FFB8B8"/>
<path d="M28 197.001L41.4366 197C43.7076 197 45.886 197.918 47.4918 199.553C49.0976 201.187 49.9998 203.404 50 205.716V205.999L28.0004 206L28 197.001Z" fill="#2F2E41"/>
<path d="M90.3994 192L89.8475 188.626C89.2806 188.423 88.7989 188.029 88.4826 187.509C87.89 186.555 87.7956 185.212 88.2018 183.517L83.759 145.281L60.564 120.756L45.684 157.332L39.7935 186.276V190.457L28.0327 191.996L28.5679 188.055C28.118 187.858 27.7431 187.518 27.5 187.085C26.8243 185.939 26.8335 184.162 27.5274 181.805L27.5575 181.703L27.5191 181.351C27.4921 181.104 27.6689 157.463 34.5653 145.75L41.472 110.187C41.2927 109.686 40.4072 106.77 42.0311 101.843C43.6339 96.9799 48.1163 89.1461 60.3691 79.4412L60.4112 79.408L60.4634 79.3968C60.5991 79.3682 74.1132 76.6302 81.1024 85.9444L81.1496 86.0073V86.0867C81.1496 86.6625 81.1375 100.063 80.0978 103.037L96.6825 134.114C97.0054 134.462 99.9048 137.874 98.8749 146.846L101.554 177.426C101.861 178.022 104.634 183.639 101.577 185.863L102.125 189.724L90.3994 192Z" fill="#2F2E41"/>
<path d="M62.8089 62.9999C59.7032 62.9999 55.5761 61.8835 53.0497 56.7376L53 56.6365L59.224 43.2181C60.0303 41.4797 61.4736 40.1313 63.2451 39.4613C65.0165 38.7914 66.9754 38.8531 68.7027 39.6334C70.4299 40.4137 71.7883 41.8505 72.4872 43.6364C73.1861 45.4223 73.17 47.4154 72.4424 49.1894L67.0614 62.3091L66.9677 62.3444C65.6238 62.7834 64.2204 63.0046 62.8089 62.9999Z" fill="#20A4B6"/>
<path d="M80.625 90L61 80.5337L63.6976 46.9159L68.6156 40.776L69.5683 40.5677C73.9467 39.6101 78.4963 39.8675 82.7444 41.3131L82.8377 41.3449L90.9159 58.9482C90.9666 59.0361 96.7923 69.5424 88.7389 75.0817L80.625 90Z" fill="#20A4B6"/>
<path d="M107.353 79.4109C107.118 79.5118 106.892 79.6318 106.675 79.7695L85.9574 69.983L85.4259 64.2939L77.0069 64L77 74.1659C76.9994 74.9871 77.2569 75.7864 77.7336 76.4437C78.2104 77.101 78.8808 77.5809 79.6441 77.8113L104.523 85.3197C104.778 86.2959 105.315 87.1686 106.063 87.8218C106.811 88.475 107.733 88.8777 108.708 88.9763C109.682 89.0749 110.663 88.8647 111.519 88.3738C112.375 87.8829 113.066 87.1344 113.5 86.228C113.934 85.3216 114.091 84.3001 113.949 83.2995C113.808 82.2989 113.374 81.3666 112.707 80.6266C112.039 79.8865 111.17 79.3738 110.213 79.1566C109.257 78.9395 108.259 79.0281 107.353 79.4109Z" fill="#FFB8B8"/>
<path d="M81.5788 67C79.2434 67 76.6078 66.1621 74.078 63.5376L74 63.4568L75.7094 48.5599C75.9308 46.6299 76.8715 44.8664 78.3302 43.6468C79.789 42.4272 81.6498 41.8483 83.5147 42.0341C85.3796 42.2198 87.1003 43.1553 88.3088 44.6406C89.5172 46.1258 90.1174 48.0427 89.9809 49.9812L88.9719 64.3167L88.8946 64.381C88.8451 64.4222 85.6742 67 81.5788 67Z" fill="#20A4B6"/>
<path d="M88.2818 28.7353C91.7672 22.188 89.4239 13.979 83.0481 10.3999C76.6722 6.82082 68.678 9.22704 65.1927 15.7743C61.7073 22.3216 64.0505 30.5307 70.4264 34.1098C76.8023 37.6889 84.7964 35.2826 88.2818 28.7353Z" fill="#FFB8B8"/>
<path d="M89.8819 15.111C89.2315 11.1666 86.1948 7.89683 82.5772 6.55896C78.9594 5.22109 74.8799 5.65619 71.3373 7.19684C70.7474 7.45457 70.1705 7.74376 69.6091 8.06326C68.3142 5.48979 65.1396 3.99723 62.2361 4.15832C58.7283 4.35293 55.5604 6.28817 52.5139 8.11207C49.4673 9.93597 46.1982 11.7507 42.6861 11.6657C36.3395 11.5123 31.6178 5.37715 25.5149 3.55386C22.7981 2.74223 19.9073 2.82433 17.2369 3.78896C14.5666 4.7536 12.2467 6.55379 10.5938 8.94391C8.94084 11.334 8.03542 14.1977 8.00102 17.1442C7.96662 20.0906 8.80492 22.9764 10.4015 25.4078C13.0055 20.5421 19.1207 18.8987 24.4268 19.5611C29.7327 20.2235 34.6779 22.6486 39.876 23.9403C45.0744 25.2321 51.0948 25.1766 55.1212 21.5134C57.4053 19.4355 58.7463 16.4656 60.7347 14.0801C62.0797 12.4666 63.9945 11.1042 65.9509 10.7835C64.0239 12.5929 62.5527 14.8683 61.6666 17.4096C60.0978 22.0569 60.9365 27.637 64.191 31.2091C67.6798 35.0387 73.1557 36.0593 78.2211 35.9974L78.3271 35.8851C76.7762 33.4646 75.5522 30.1082 77.2597 27.8052C78.9454 25.5318 82.2699 25.8668 84.8513 24.8608C88.4468 23.4597 90.5322 19.0554 89.8819 15.111Z" fill="#2F2E41"/>
<path d="M125.542 207H0.458182C0.336664 207 0.220124 206.947 0.134198 206.854C0.0482722 206.76 0 206.633 0 206.5C0 206.367 0.0482722 206.24 0.134198 206.146C0.220124 206.053 0.336664 206 0.458182 206H125.542C125.663 206 125.78 206.053 125.866 206.146C125.952 206.24 126 206.367 126 206.5C126 206.633 125.952 206.76 125.866 206.854C125.78 206.947 125.663 207 125.542 207Z" fill="#CCCCCC"/>
<path d="M170.036 45C169.463 45.0017 168.999 45.6745 169 46.503C169.001 47.3291 169.464 47.9984 170.036 48H218.964C219.537 47.9983 220.001 47.3255 220 46.497C219.999 45.6709 219.536 45.0016 218.964 45H170.036Z" fill="white"/>
<path d="M170.036 55C169.463 55.0017 168.999 55.6745 169 56.503C169.001 57.3291 169.464 57.9984 170.036 58H218.964C219.537 57.9983 220.001 57.3255 220 56.497C219.999 55.6709 219.536 55.0016 218.964 55H170.036Z" fill="white"/>
<path d="M170.03 64C169.46 64.0022 168.999 64.8994 169 66.004C169.001 67.1054 169.462 67.9978 170.03 68H190.97C191.54 67.9978 192.001 67.1006 192 65.996C191.999 64.8946 191.538 64.0022 190.97 64H170.03Z" fill="white"/>
<path d="M144.5 70C151.956 70 158 63.732 158 56C158 48.268 151.956 42 144.5 42C137.044 42 131 48.268 131 56C131 63.732 137.044 70 144.5 70Z" fill="white"/>
<path d="M375.558 206H165.442C164.795 205.999 164.174 205.734 163.716 205.262C163.258 204.791 163.001 204.152 163 203.485V2.51525C163.001 1.84843 163.258 1.20917 163.716 0.737662C164.174 0.26615 164.795 0.000872718 165.442 0H375.558C376.205 0.000872718 376.826 0.26615 377.284 0.737662C377.742 1.20917 377.999 1.84843 378 2.51525V203.484C377.999 204.151 377.742 204.79 377.284 205.262C376.826 205.734 376.205 205.999 375.558 206ZM165.442 1.00412C165.054 1.00499 164.682 1.16413 164.408 1.44672C164.134 1.7293 163.979 2.11232 163.978 2.51195V203.484C163.979 203.884 164.134 204.267 164.408 204.55C164.682 204.832 165.054 204.991 165.442 204.992H375.558C375.946 204.991 376.318 204.832 376.592 204.55C376.867 204.267 377.021 203.884 377.022 203.484V2.51525C377.021 2.11562 376.867 1.7326 376.592 1.45002C376.318 1.16743 375.946 1.00829 375.558 1.00742L165.442 1.00412Z" fill="#E6E6E6"/>
<path d="M264.67 52C264.227 52 263.803 52.2107 263.489 52.5858C263.176 52.9609 263 53.4696 263 54C263 54.5304 263.176 55.0391 263.489 55.4142C263.803 55.7893 264.227 56 264.67 56H356.33C356.773 56 357.197 55.7893 357.511 55.4142C357.824 55.0391 358 54.5304 358 54C358 53.4696 357.824 52.9609 357.511 52.5858C357.197 52.2107 356.773 52 356.33 52H264.67Z" fill="#E6E6E6"/>
<path d="M264.666 63C264.224 63 263.8 63.158 263.488 63.4393C263.176 63.7206 263 64.1022 263 64.5C263 64.8978 263.176 65.2794 263.488 65.5607C263.8 65.842 264.224 66 264.666 66H311.334C311.776 66 312.2 65.842 312.512 65.5607C312.824 65.2794 313 64.8978 313 64.5C313 64.1022 312.824 63.7206 312.512 63.4393C312.2 63.158 311.776 63 311.334 63H264.666Z" fill="#E6E6E6"/>
<path d="M184.669 112C184.226 112 183.802 112.211 183.489 112.586C183.176 112.961 183 113.47 183 114C183 114.53 183.176 115.039 183.489 115.414C183.802 115.789 184.226 116 184.669 116H356.332C356.774 116 357.198 115.789 357.511 115.414C357.824 115.039 358 114.53 358 114C358 113.47 357.824 112.961 357.511 112.586C357.198 112.211 356.774 112 356.332 112H184.669Z" fill="#E6E6E6"/>
<path d="M184.666 122C184.224 122 183.8 122.211 183.488 122.586C183.176 122.961 183 123.47 183 124C183 124.53 183.176 125.039 183.488 125.414C183.8 125.789 184.224 126 184.666 126H311.334C311.776 126 312.2 125.789 312.512 125.414C312.824 125.039 313 124.53 313 124C313 123.47 312.824 122.961 312.512 122.586C312.2 122.211 311.776 122 311.334 122H184.666Z" fill="#E6E6E6"/>
<path d="M184.669 132C184.226 132 183.802 132.211 183.489 132.586C183.176 132.961 183 133.47 183 134C183 134.53 183.176 135.039 183.489 135.414C183.802 135.789 184.226 136 184.669 136H356.332C356.774 136 357.198 135.789 357.511 135.414C357.824 135.039 358 134.53 358 134C358 133.47 357.824 132.961 357.511 132.586C357.198 132.211 356.774 132 356.332 132H184.669Z" fill="#E6E6E6"/>
<path d="M184.666 143C184.224 143 183.8 143.158 183.488 143.439C183.176 143.721 183 144.102 183 144.5C183 144.898 183.176 145.279 183.488 145.561C183.8 145.842 184.224 146 184.666 146H311.334C311.776 146 312.2 145.842 312.512 145.561C312.824 145.279 313 144.898 313 144.5C313 144.102 312.824 143.721 312.512 143.439C312.2 143.158 311.776 143 311.334 143H184.666Z" fill="#E6E6E6"/>
<path d="M241.554 88H109.446C108.798 87.9993 108.176 87.7366 107.717 87.2698C107.259 86.8029 107.001 86.1699 107 85.5097V26.4903C107.001 25.8301 107.259 25.1971 107.717 24.7302C108.176 24.2634 108.798 24.0007 109.446 24H241.554C242.202 24.0007 242.824 24.2634 243.283 24.7302C243.741 25.1971 243.999 25.8301 244 26.4903V85.5097C243.999 86.1699 243.741 86.8029 243.283 87.2698C242.824 87.7366 242.202 87.9993 241.554 88Z" fill="#20A4B6"/>
<path d="M354.552 183H304.448C303.799 182.999 303.177 182.72 302.718 182.222C302.259 181.725 302.001 181.051 302 180.348V171.652C302.001 170.949 302.259 170.275 302.718 169.778C303.177 169.28 303.799 169.001 304.448 169H354.552C355.201 169.001 355.823 169.28 356.282 169.778C356.741 170.275 356.999 170.949 357 171.652V180.348C356.999 181.051 356.741 181.725 356.282 182.222C355.823 182.72 355.201 182.999 354.552 183Z" fill="#20A4B6"/>
<path d="M58.0803 100.994C55.9851 99.3551 55.3701 96.293 56.7069 94.1543C56.8397 93.9449 56.9899 93.7481 57.1557 93.5664L57.2896 50L63.471 51.209L63.7426 94.0577C65.1509 95.7692 65.4352 98.2634 64.2946 100.088C62.9579 102.227 60.1756 102.632 58.0803 100.994Z" fill="#FFB8B8"/>
<path d="M91.0009 200H97.7764L101 174H91L91.0009 200Z" fill="#FFB8B8"/>
<path d="M89 197.001L102.437 197C104.708 197 106.886 197.918 108.492 199.553C110.098 201.187 111 203.404 111 205.716V205.999L89.0004 206L89 197.001Z" fill="#2F2E41"/>
<path d="M30.0009 200H36.7769L40 174H30L30.0009 200Z" fill="#FFB8B8"/>
<path d="M28 197.001L41.4366 197C43.7076 197 45.886 197.918 47.4918 199.553C49.0976 201.187 49.9998 203.404 50 205.716V205.999L28.0004 206L28 197.001Z" fill="#2F2E41"/>
<path d="M90.3994 192L89.8475 188.626C89.2806 188.423 88.7989 188.029 88.4826 187.509C87.89 186.555 87.7956 185.212 88.2018 183.517L83.759 145.281L60.564 120.756L45.684 157.332L39.7935 186.276V190.457L28.0327 191.996L28.5679 188.055C28.118 187.858 27.7431 187.518 27.5 187.085C26.8243 185.939 26.8335 184.162 27.5274 181.805L27.5575 181.703L27.5191 181.351C27.4921 181.104 27.6689 157.463 34.5653 145.75L41.472 110.187C41.2927 109.686 40.4072 106.77 42.0311 101.843C43.6339 96.9799 48.1163 89.1461 60.3691 79.4412L60.4112 79.408L60.4634 79.3968C60.5991 79.3682 74.1132 76.6302 81.1024 85.9444L81.1496 86.0073V86.0867C81.1496 86.6625 81.1375 100.063 80.0978 103.037L96.6825 134.114C97.0054 134.462 99.9048 137.874 98.8749 146.846L101.554 177.426C101.861 178.022 104.634 183.639 101.577 185.863L102.125 189.724L90.3994 192Z" fill="#2F2E41"/>
<path d="M62.8089 62.9999C59.7032 62.9999 55.5761 61.8835 53.0497 56.7376L53 56.6365L59.224 43.2181C60.0303 41.4797 61.4736 40.1313 63.2451 39.4613C65.0165 38.7914 66.9754 38.8531 68.7027 39.6334C70.4299 40.4137 71.7883 41.8505 72.4872 43.6364C73.1861 45.4223 73.17 47.4154 72.4424 49.1894L67.0614 62.3091L66.9677 62.3444C65.6238 62.7834 64.2204 63.0046 62.8089 62.9999Z" fill="#20A4B6"/>
<path d="M80.625 90L61 80.5337L63.6976 46.9159L68.6156 40.776L69.5683 40.5677C73.9467 39.6101 78.4963 39.8675 82.7444 41.3131L82.8377 41.3449L90.9159 58.9482C90.9666 59.0361 96.7923 69.5424 88.7389 75.0817L80.625 90Z" fill="#20A4B6"/>
<path d="M107.353 79.4109C107.118 79.5118 106.892 79.6318 106.675 79.7695L85.9574 69.983L85.4259 64.2939L77.0069 64L77 74.1659C76.9994 74.9871 77.2569 75.7864 77.7336 76.4437C78.2104 77.101 78.8808 77.5809 79.6441 77.8113L104.523 85.3197C104.778 86.2959 105.315 87.1686 106.063 87.8218C106.811 88.475 107.733 88.8777 108.708 88.9763C109.682 89.0749 110.663 88.8647 111.519 88.3738C112.375 87.8829 113.066 87.1344 113.5 86.228C113.934 85.3216 114.091 84.3001 113.949 83.2995C113.808 82.2989 113.374 81.3666 112.707 80.6266C112.039 79.8865 111.17 79.3738 110.213 79.1566C109.257 78.9395 108.259 79.0281 107.353 79.4109Z" fill="#FFB8B8"/>
<path d="M81.5788 67C79.2434 67 76.6078 66.1621 74.078 63.5376L74 63.4568L75.7094 48.5599C75.9308 46.6299 76.8715 44.8664 78.3302 43.6468C79.789 42.4272 81.6498 41.8483 83.5147 42.0341C85.3796 42.2198 87.1003 43.1553 88.3088 44.6406C89.5172 46.1258 90.1174 48.0427 89.9809 49.9812L88.9719 64.3167L88.8946 64.381C88.8451 64.4222 85.6742 67 81.5788 67Z" fill="#20A4B6"/>
<path d="M88.2818 28.7353C91.7672 22.188 89.4239 13.979 83.0481 10.3999C76.6722 6.82082 68.678 9.22704 65.1927 15.7743C61.7073 22.3216 64.0505 30.5307 70.4264 34.1098C76.8023 37.6889 84.7964 35.2826 88.2818 28.7353Z" fill="#FFB8B8"/>
<path d="M89.8819 15.111C89.2315 11.1666 86.1948 7.89683 82.5772 6.55896C78.9594 5.22109 74.8799 5.65619 71.3373 7.19684C70.7474 7.45457 70.1705 7.74376 69.6091 8.06326C68.3142 5.48979 65.1396 3.99723 62.2361 4.15832C58.7283 4.35293 55.5604 6.28817 52.5139 8.11207C49.4673 9.93597 46.1982 11.7507 42.6861 11.6657C36.3395 11.5123 31.6178 5.37715 25.5149 3.55386C22.7981 2.74223 19.9073 2.82433 17.2369 3.78896C14.5666 4.7536 12.2467 6.55379 10.5938 8.94391C8.94084 11.334 8.03542 14.1977 8.00102 17.1442C7.96662 20.0906 8.80492 22.9764 10.4015 25.4078C13.0055 20.5421 19.1207 18.8987 24.4268 19.5611C29.7327 20.2235 34.6779 22.6486 39.876 23.9403C45.0744 25.2321 51.0948 25.1766 55.1212 21.5134C57.4053 19.4355 58.7463 16.4656 60.7347 14.0801C62.0797 12.4666 63.9945 11.1042 65.9509 10.7835C64.0239 12.5929 62.5527 14.8683 61.6666 17.4096C60.0978 22.0569 60.9365 27.637 64.191 31.2091C67.6798 35.0387 73.1557 36.0593 78.2211 35.9974L78.3271 35.8851C76.7762 33.4646 75.5522 30.1082 77.2597 27.8052C78.9454 25.5318 82.2699 25.8668 84.8513 24.8608C88.4468 23.4597 90.5322 19.0554 89.8819 15.111Z" fill="#2F2E41"/>
<path d="M125.542 207H0.458182C0.336664 207 0.220124 206.947 0.134198 206.854C0.0482722 206.76 0 206.633 0 206.5C0 206.367 0.0482722 206.24 0.134198 206.146C0.220124 206.053 0.336664 206 0.458182 206H125.542C125.663 206 125.78 206.053 125.866 206.146C125.952 206.24 126 206.367 126 206.5C126 206.633 125.952 206.76 125.866 206.854C125.78 206.947 125.663 207 125.542 207Z" fill="#CCCCCC"/>
<path d="M170.036 45C169.463 45.0017 168.999 45.6745 169 46.503C169.001 47.3291 169.464 47.9984 170.036 48H218.964C219.537 47.9983 220.001 47.3255 220 46.497C219.999 45.6709 219.536 45.0016 218.964 45H170.036Z" fill="white"/>
<path d="M170.036 55C169.463 55.0017 168.999 55.6745 169 56.503C169.001 57.3291 169.464 57.9984 170.036 58H218.964C219.537 57.9983 220.001 57.3255 220 56.497C219.999 55.6709 219.536 55.0016 218.964 55H170.036Z" fill="white"/>
<path d="M170.03 64C169.46 64.0022 168.999 64.8994 169 66.004C169.001 67.1054 169.462 67.9978 170.03 68H190.97C191.54 67.9978 192.001 67.1006 192 65.996C191.999 64.8946 191.538 64.0022 190.97 64H170.03Z" fill="white"/>
<path d="M144.5 70C151.956 70 158 63.732 158 56C158 48.268 151.956 42 144.5 42C137.044 42 131 48.268 131 56C131 63.732 137.044 70 144.5 70Z" fill="white"/>
<path d="M375.558 206H165.442C164.795 205.999 164.174 205.734 163.716 205.262C163.258 204.791 163.001 204.152 163 203.485V2.51525C163.001 1.84843 163.258 1.20917 163.716 0.737662C164.174 0.26615 164.795 0.000872718 165.442 0H375.558C376.205 0.000872718 376.826 0.26615 377.284 0.737662C377.742 1.20917 377.999 1.84843 378 2.51525V203.484C377.999 204.151 377.742 204.79 377.284 205.262C376.826 205.734 376.205 205.999 375.558 206ZM165.442 1.00412C165.054 1.00499 164.682 1.16413 164.408 1.44672C164.134 1.7293 163.979 2.11232 163.978 2.51195V203.484C163.979 203.884 164.134 204.267 164.408 204.55C164.682 204.832 165.054 204.991 165.442 204.992H375.558C375.946 204.991 376.318 204.832 376.592 204.55C376.867 204.267 377.021 203.884 377.022 203.484V2.51525C377.021 2.11562 376.867 1.7326 376.592 1.45002C376.318 1.16743 375.946 1.00829 375.558 1.00742L165.442 1.00412Z" fill="#E6E6E6"/>
<path d="M264.67 52C264.227 52 263.803 52.2107 263.489 52.5858C263.176 52.9609 263 53.4696 263 54C263 54.5304 263.176 55.0391 263.489 55.4142C263.803 55.7893 264.227 56 264.67 56H356.33C356.773 56 357.197 55.7893 357.511 55.4142C357.824 55.0391 358 54.5304 358 54C358 53.4696 357.824 52.9609 357.511 52.5858C357.197 52.2107 356.773 52 356.33 52H264.67Z" fill="#E6E6E6"/>
<path d="M264.666 63C264.224 63 263.8 63.158 263.488 63.4393C263.176 63.7206 263 64.1022 263 64.5C263 64.8978 263.176 65.2794 263.488 65.5607C263.8 65.842 264.224 66 264.666 66H311.334C311.776 66 312.2 65.842 312.512 65.5607C312.824 65.2794 313 64.8978 313 64.5C313 64.1022 312.824 63.7206 312.512 63.4393C312.2 63.158 311.776 63 311.334 63H264.666Z" fill="#E6E6E6"/>
<path d="M184.669 112C184.226 112 183.802 112.211 183.489 112.586C183.176 112.961 183 113.47 183 114C183 114.53 183.176 115.039 183.489 115.414C183.802 115.789 184.226 116 184.669 116H356.332C356.774 116 357.198 115.789 357.511 115.414C357.824 115.039 358 114.53 358 114C358 113.47 357.824 112.961 357.511 112.586C357.198 112.211 356.774 112 356.332 112H184.669Z" fill="#E6E6E6"/>
<path d="M184.666 122C184.224 122 183.8 122.211 183.488 122.586C183.176 122.961 183 123.47 183 124C183 124.53 183.176 125.039 183.488 125.414C183.8 125.789 184.224 126 184.666 126H311.334C311.776 126 312.2 125.789 312.512 125.414C312.824 125.039 313 124.53 313 124C313 123.47 312.824 122.961 312.512 122.586C312.2 122.211 311.776 122 311.334 122H184.666Z" fill="#E6E6E6"/>
<path d="M184.669 132C184.226 132 183.802 132.211 183.489 132.586C183.176 132.961 183 133.47 183 134C183 134.53 183.176 135.039 183.489 135.414C183.802 135.789 184.226 136 184.669 136H356.332C356.774 136 357.198 135.789 357.511 135.414C357.824 135.039 358 134.53 358 134C358 133.47 357.824 132.961 357.511 132.586C357.198 132.211 356.774 132 356.332 132H184.669Z" fill="#E6E6E6"/>
<path d="M184.666 143C184.224 143 183.8 143.158 183.488 143.439C183.176 143.721 183 144.102 183 144.5C183 144.898 183.176 145.279 183.488 145.561C183.8 145.842 184.224 146 184.666 146H311.334C311.776 146 312.2 145.842 312.512 145.561C312.824 145.279 313 144.898 313 144.5C313 144.102 312.824 143.721 312.512 143.439C312.2 143.158 311.776 143 311.334 143H184.666Z" fill="#E6E6E6"/>
<path d="M241.554 88H109.446C108.798 87.9993 108.176 87.7366 107.717 87.2698C107.259 86.8029 107.001 86.1699 107 85.5097V26.4903C107.001 25.8301 107.259 25.1971 107.717 24.7302C108.176 24.2634 108.798 24.0007 109.446 24H241.554C242.202 24.0007 242.824 24.2634 243.283 24.7302C243.741 25.1971 243.999 25.8301 244 26.4903V85.5097C243.999 86.1699 243.741 86.8029 243.283 87.2698C242.824 87.7366 242.202 87.9993 241.554 88Z" fill="#20A4B6"/>
<path d="M354.552 183H304.448C303.799 182.999 303.177 182.72 302.718 182.222C302.259 181.725 302.001 181.051 302 180.348V171.652C302.001 170.949 302.259 170.275 302.718 169.778C303.177 169.28 303.799 169.001 304.448 169H354.552C355.201 169.001 355.823 169.28 356.282 169.778C356.741 170.275 356.999 170.949 357 171.652V180.348C356.999 181.051 356.741 181.725 356.282 182.222C355.823 182.72 355.201 182.999 354.552 183Z" fill="#20A4B6"/>
<path d="M58.0803 100.994C55.9851 99.3551 55.3701 96.293 56.7069 94.1543C56.8397 93.9449 56.9899 93.7481 57.1557 93.5664L57.2896 50L63.471 51.209L63.7426 94.0577C65.1509 95.7692 65.4352 98.2634 64.2946 100.088C62.9579 102.227 60.1756 102.632 58.0803 100.994Z" fill="#FFB8B8"/>
<path d="M91.0009 200H97.7764L101 174H91L91.0009 200Z" fill="#FFB8B8"/>
<path d="M89 197.001L102.437 197C104.708 197 106.886 197.918 108.492 199.553C110.098 201.187 111 203.404 111 205.716V205.999L89.0004 206L89 197.001Z" fill="#2F2E41"/>
<path d="M30.0009 200H36.7769L40 174H30L30.0009 200Z" fill="#FFB8B8"/>
<path d="M28 197.001L41.4366 197C43.7076 197 45.886 197.918 47.4918 199.553C49.0976 201.187 49.9998 203.404 50 205.716V205.999L28.0004 206L28 197.001Z" fill="#2F2E41"/>
<path d="M90.3994 192L89.8475 188.626C89.2806 188.423 88.7989 188.029 88.4826 187.509C87.89 186.555 87.7956 185.212 88.2018 183.517L83.759 145.281L60.564 120.756L45.684 157.332L39.7935 186.276V190.457L28.0327 191.996L28.5679 188.055C28.118 187.858 27.7431 187.518 27.5 187.085C26.8243 185.939 26.8335 184.162 27.5274 181.805L27.5575 181.703L27.5191 181.351C27.4921 181.104 27.6689 157.463 34.5653 145.75L41.472 110.187C41.2927 109.686 40.4072 106.77 42.0311 101.843C43.6339 96.9799 48.1163 89.1461 60.3691 79.4412L60.4112 79.408L60.4634 79.3968C60.5991 79.3682 74.1132 76.6302 81.1024 85.9444L81.1496 86.0073V86.0867C81.1496 86.6625 81.1375 100.063 80.0978 103.037L96.6825 134.114C97.0054 134.462 99.9048 137.874 98.8749 146.846L101.554 177.426C101.861 178.022 104.634 183.639 101.577 185.863L102.125 189.724L90.3994 192Z" fill="#2F2E41"/>
<path d="M62.8089 62.9999C59.7032 62.9999 55.5761 61.8835 53.0497 56.7376L53 56.6365L59.224 43.2181C60.0303 41.4797 61.4736 40.1313 63.2451 39.4613C65.0165 38.7914 66.9754 38.8531 68.7027 39.6334C70.4299 40.4137 71.7883 41.8505 72.4872 43.6364C73.1861 45.4223 73.17 47.4154 72.4424 49.1894L67.0614 62.3091L66.9677 62.3444C65.6238 62.7834 64.2204 63.0046 62.8089 62.9999Z" fill="#20A4B6"/>
<path d="M80.625 90L61 80.5337L63.6976 46.9159L68.6156 40.776L69.5683 40.5677C73.9467 39.6101 78.4963 39.8675 82.7444 41.3131L82.8377 41.3449L90.9159 58.9482C90.9666 59.0361 96.7923 69.5424 88.7389 75.0817L80.625 90Z" fill="#20A4B6"/>
<path d="M107.353 79.4109C107.118 79.5118 106.892 79.6318 106.675 79.7695L85.9574 69.983L85.4259 64.2939L77.0069 64L77 74.1659C76.9994 74.9871 77.2569 75.7864 77.7336 76.4437C78.2104 77.101 78.8808 77.5809 79.6441 77.8113L104.523 85.3197C104.778 86.2959 105.315 87.1686 106.063 87.8218C106.811 88.475 107.733 88.8777 108.708 88.9763C109.682 89.0749 110.663 88.8647 111.519 88.3738C112.375 87.8829 113.066 87.1344 113.5 86.228C113.934 85.3216 114.091 84.3001 113.949 83.2995C113.808 82.2989 113.374 81.3666 112.707 80.6266C112.039 79.8865 111.17 79.3738 110.213 79.1566C109.257 78.9395 108.259 79.0281 107.353 79.4109Z" fill="#FFB8B8"/>
<path d="M81.5788 67C79.2434 67 76.6078 66.1621 74.078 63.5376L74 63.4568L75.7094 48.5599C75.9308 46.6299 76.8715 44.8664 78.3302 43.6468C79.789 42.4272 81.6498 41.8483 83.5147 42.0341C85.3796 42.2198 87.1003 43.1553 88.3088 44.6406C89.5172 46.1258 90.1174 48.0427 89.9809 49.9812L88.9719 64.3167L88.8946 64.381C88.8451 64.4222 85.6742 67 81.5788 67Z" fill="#20A4B6"/>
<path d="M88.2818 28.7353C91.7672 22.188 89.4239 13.979 83.0481 10.3999C76.6722 6.82082 68.678 9.22704 65.1927 15.7743C61.7073 22.3216 64.0505 30.5307 70.4264 34.1098C76.8023 37.6889 84.7964 35.2826 88.2818 28.7353Z" fill="#FFB8B8"/>
<path d="M89.8819 15.111C89.2315 11.1666 86.1948 7.89683 82.5772 6.55896C78.9594 5.22109 74.8799 5.65619 71.3373 7.19684C70.7474 7.45457 70.1705 7.74376 69.6091 8.06326C68.3142 5.48979 65.1396 3.99723 62.2361 4.15832C58.7283 4.35293 55.5604 6.28817 52.5139 8.11207C49.4673 9.93597 46.1982 11.7507 42.6861 11.6657C36.3395 11.5123 31.6178 5.37715 25.5149 3.55386C22.7981 2.74223 19.9073 2.82433 17.2369 3.78896C14.5666 4.7536 12.2467 6.55379 10.5938 8.94391C8.94084 11.334 8.03542 14.1977 8.00102 17.1442C7.96662 20.0906 8.80492 22.9764 10.4015 25.4078C13.0055 20.5421 19.1207 18.8987 24.4268 19.5611C29.7327 20.2235 34.6779 22.6486 39.876 23.9403C45.0744 25.2321 51.0948 25.1766 55.1212 21.5134C57.4053 19.4355 58.7463 16.4656 60.7347 14.0801C62.0797 12.4666 63.9945 11.1042 65.9509 10.7835C64.0239 12.5929 62.5527 14.8683 61.6666 17.4096C60.0978 22.0569 60.9365 27.637 64.191 31.2091C67.6798 35.0387 73.1557 36.0593 78.2211 35.9974L78.3271 35.8851C76.7762 33.4646 75.5522 30.1082 77.2597 27.8052C78.9454 25.5318 82.2699 25.8668 84.8513 24.8608C88.4468 23.4597 90.5322 19.0554 89.8819 15.111Z" fill="#2F2E41"/>
<path d="M125.542 207H0.458182C0.336664 207 0.220124 206.947 0.134198 206.854C0.0482722 206.76 0 206.633 0 206.5C0 206.367 0.0482722 206.24 0.134198 206.146C0.220124 206.053 0.336664 206 0.458182 206H125.542C125.663 206 125.78 206.053 125.866 206.146C125.952 206.24 126 206.367 126 206.5C126 206.633 125.952 206.76 125.866 206.854C125.78 206.947 125.663 207 125.542 207Z" fill="#CCCCCC"/>
<path d="M170.036 45C169.463 45.0017 168.999 45.6745 169 46.503C169.001 47.3291 169.464 47.9984 170.036 48H218.964C219.537 47.9983 220.001 47.3255 220 46.497C219.999 45.6709 219.536 45.0016 218.964 45H170.036Z" fill="white"/>
<path d="M170.036 55C169.463 55.0017 168.999 55.6745 169 56.503C169.001 57.3291 169.464 57.9984 170.036 58H218.964C219.537 57.9983 220.001 57.3255 220 56.497C219.999 55.6709 219.536 55.0016 218.964 55H170.036Z" fill="white"/>
<path d="M170.03 64C169.46 64.0022 168.999 64.8994 169 66.004C169.001 67.1054 169.462 67.9978 170.03 68H190.97C191.54 67.9978 192.001 67.1006 192 65.996C191.999 64.8946 191.538 64.0022 190.97 64H170.03Z" fill="white"/>
<path d="M144.5 70C151.956 70 158 63.732 158 56C158 48.268 151.956 42 144.5 42C137.044 42 131 48.268 131 56C131 63.732 137.044 70 144.5 70Z" fill="white"/>
</g>
<defs>
<clipPath id="clip0_2379_2501">
<rect width="378" height="207" fill="white"/>
</clipPath>
</defs>
</svg>
